<svg xmlns="http://www.w3.org/2000/svg" width="24" height="24" fill="none"><path fill="#B32056" fill-rule="evenodd" d="M18.18 17.837a8.5 8.5 0 1 0-12.358 0 6.503 6.503 0 0 1 12.357 0Zm-1.265 1.099a5.002 5.002 0 0 0-9.83 0A8.46 8.46 0 0 0 12 20.5a8.46 8.46 0 0 0 4.915-1.564Zm-11.41.668A9.978 9.978 0 0 1 2 12C2 6.477 6.477 2 12 2s10 4.477 10 10c0 3.044-1.36 5.77-3.505 7.604A9.96 9.96 0 0 1 12 22a9.96 9.96 0 0 1-6.495-2.396ZM12 10.359a1.71 1.71 0 1 0 0-3.419 1.71 1.71 0 0 0 0 3.42Zm0 1.5a3.21 3.21 0 1 0 0-6.419 3.21 3.21 0 0 0 0 6.42Z" clip-rule="evenodd"/></svg>