<svg xmlns="http://www.w3.org/2000/svg" width="24" height="24" fill="none"><path fill="#B32056" fill-rule="evenodd" d="M17 2H2v15L17 2ZM2 1a1 1 0 0 0-1 1v15a1 1 0 0 0 1 1h7.014A8.5 8.5 0 0 1 18 9.014V2a1 1 0 0 0-1-1H2Zm7.284 3.677V2.8h.921v4.909h-.921v-.524a1.11 1.11 0 0 1-.385.46.977.977 0 0 1-.552.155c-.404 0-.717-.162-.94-.486-.223-.324-.334-.78-.334-1.369 0-.597.112-1.056.337-1.375.227-.32.55-.48.969-.48a.9.9 0 0 1 .507.148c.152.097.284.243.398.439ZM7.997 5.951c0 .341.057.608.17.802.114.193.27.29.47.29.2 0 .358-.097.473-.29.116-.194.174-.46.174-.802 0-.34-.058-.607-.174-.8-.115-.194-.273-.291-.473-.291-.2 0-.356.097-.47.29-.113.194-.17.46-.17.801Zm-3.158-2.1-.438 1.927h.88L4.839 3.85Zm-.568-.852h1.14l1.27 4.71h-.93l-.29-1.165H4.215L3.93 7.71H3L4.271 3ZM21.74 13.26a5.97 5.97 0 0 0-4.24-1.76c-1.59 0-3.12.63-4.24 1.76a5.97 5.97 0 0 0-1.76 4.24c0 .79.16 1.57.46 2.3.3.72.74 1.39 1.3 1.94.55.56 1.22 1 1.94 1.3.73.3 1.51.46 2.3.46.79 0 1.57-.16 2.3-.46.72-.3 1.39-.74 1.94-1.3.56-.55 1-1.22 1.3-1.94.3-.73.46-1.51.46-2.3 0-1.59-.63-3.12-1.76-4.24Zm.38 6.15c-.25.61-.62 1.16-1.08 1.63-.47.46-1.02.83-1.63 1.08-.6.25-1.25.38-1.91.38-.66 0-1.31-.13-1.91-.38-.61-.25-1.16-.62-1.63-1.08-.46-.47-.83-1.02-1.08-1.63-.25-.6-.38-1.25-.38-1.91 0-1.33.53-2.6 1.46-3.54.94-.93 2.21-1.46 3.54-1.46s2.6.53 3.54 1.46c.93.94 1.46 2.21 1.46 3.54 0 .66-.13 1.31-.38 1.91Zm-2.63-3.34a2.01 2.01 0 0 0-1.13-1.34c-.12-.05-.24-.09-.36-.12v-.78c0-.27-.22-.5-.5-.5s-.5.23-.5.5v.74c-.13.02-.25.05-.37.1-.16.07-.3.15-.43.26-.29.24-.49.57-.56.94-.08.37-.02.76.17 1.09.18.33.47.59.82.73l1.37.55c.14.05.25.15.32.28.07.13.09.28.06.42-.03.14-.1.27-.21.36a.67.67 0 0 1-.4.14h-.32c-.22 0-.44-.07-.62-.21-.17-.14-.3-.33-.35-.54l-.02-.09a.498.498 0 0 0-.61-.36c-.27.06-.43.34-.36.6l.02.09c.11.43.36.82.71 1.09.23.18.5.31.78.37v.78c0 .27.22.5.5.5s.5-.23.5-.5v-.74c.29-.04.57-.17.8-.36.29-.24.49-.57.56-.94.08-.37.02-.76-.17-1.09-.18-.33-.47-.59-.82-.73L17 16.76a.587.587 0 0 1-.32-.28.616.616 0 0 1-.06-.42c.03-.13.09-.25.19-.34l.02-.02a.67.67 0 0 1 .4-.14h.32c.19 0 .38.05.54.16a.197.197 0 0 1 .055.032 1.02 1.02 0 0 1 .375.558l.02.09c.07.27.34.43.61.36.27-.06.43-.34.36-.6l-.02-.09Z" clip-rule="evenodd"/></svg>