<svg xmlns="http://www.w3.org/2000/svg" width="24" height="24" fill="none"><path fill="#B32056" fill-rule="evenodd" d="m9.206 6.5-.36-2H3.5V8h17V6.5H9.206ZM3.5 19.5v-10h17v10h-17ZM2 4v16a1 1 0 0 0 1 1h18a1 1 0 0 0 1-1V6a1 1 0 0 0-1-1H10.46l-.212-1.177A1 1 0 0 0 9.264 3H3a1 1 0 0 0-1 1Zm3.5 8.5a.5.5 0 0 0-.5.5v3a.5.5 0 0 0 .5.5h3A.5.5 0 0 0 9 16v-3a.5.5 0 0 0-.5-.5h-3Zm5.5 1v2h2v-2h-2Zm-.5-1a.5.5 0 0 0-.5.5v3a.5.5 0 0 0 .5.5h3a.5.5 0 0 0 .5-.5v-3a.5.5 0 0 0-.5-.5h-3Zm5.5 3v-2h2v2h-2ZM15 13a.5.5 0 0 1 .5-.5h3a.5.5 0 0 1 .5.5v3a.5.5 0 0 1-.5.5h-3a.5.5 0 0 1-.5-.5v-3Z" clip-rule="evenodd"/></svg>