<svg xmlns="http://www.w3.org/2000/svg" width="24" height="24" fill="none"><path fill="#B32056" fill-rule="evenodd" d="m9.206 6.5-.36-2H3.5V8h17V6.5H9.206ZM3.5 19.5v-10h17v10h-17ZM2 4v16a1 1 0 0 0 1 1h18a1 1 0 0 0 1-1V6a1 1 0 0 0-1-1H10.46l-.212-1.177A1 1 0 0 0 9.264 3H3a1 1 0 0 0-1 1Zm7.59 8.022-2.184 4.9h1.162l.436-1.05h2.272l.435 1.05h1.19l-2.191-4.9H9.59Zm1.33 2.989-.778-1.875-.78 1.875h1.557Zm4.652 1.443v.468h1.022v-2.149c0-.574-.159-.996-.476-1.267-.317-.27-.763-.406-1.337-.406-.299 0-.593.04-.882.119a2.36 2.36 0 0 0-.742.336l.392.763a1.52 1.52 0 0 1 .49-.252c.196-.065.395-.098.595-.098.294 0 .511.065.651.196.145.13.217.313.217.546h-.868c-.383 0-.693.049-.93.147-.239.093-.414.224-.526.392a1.069 1.069 0 0 0-.16.588c0 .215.055.408.167.581.112.173.273.31.483.413.21.098.462.147.756.147.332 0 .602-.063.812-.189a.956.956 0 0 0 .336-.335Zm-.07-.722v-.385h-.749c-.257 0-.434.042-.532.126a.406.406 0 0 0-.14.315c0 .14.054.252.161.336.112.08.264.119.455.119a.958.958 0 0 0 .49-.126.76.76 0 0 0 .315-.385Z" clip-rule="evenodd"/></svg>