<svg xmlns="http://www.w3.org/2000/svg" width="24" height="24" fill="none"><path fill="#B32056" d="M8.236 6.312c.52 0 1 .04 1.438.16.44.08.8.242 1.12.443.32.201.56.482.718.844.16.361.24.804.24 1.286 0 .563-.12 1.045-.399 1.407-.24.362-.64.683-1.119.925.68.201 1.199.563 1.519 1.046.32.481.52 1.084.52 1.768 0 .563-.121 1.045-.321 1.447-.2.402-.52.764-.88 1.005a4.13 4.13 0 0 1-1.278.563c-.479.12-.958.201-1.438.201H3V6.312h5.236Zm-.32 4.501c.44 0 .8-.12 1.079-.32.28-.201.4-.564.4-1.006 0-.241-.041-.482-.12-.642-.08-.161-.2-.282-.36-.403a1.99 1.99 0 0 0-.52-.2c-.2-.041-.399-.041-.64-.041H5.439v2.613h2.478Zm.12 4.745c.24 0 .48-.04.68-.08a1.43 1.43 0 0 0 .959-.683c.079-.202.16-.443.16-.724 0-.564-.16-.966-.48-1.247-.32-.241-.76-.362-1.28-.362H5.439v3.097l2.598-.001Zm7.713-.04c.32.32.8.482 1.439.482.44 0 .84-.12 1.159-.321.32-.242.52-.483.6-.723h1.958c-.32.963-.8 1.647-1.439 2.09-.64.401-1.399.642-2.318.642a4.673 4.673 0 0 1-1.719-.321 3.193 3.193 0 0 1-1.279-.884 3.195 3.195 0 0 1-.799-1.328c-.2-.522-.28-1.084-.28-1.728 0-.603.08-1.165.28-1.689a4.34 4.34 0 0 1 .84-1.366 4.05 4.05 0 0 1 1.278-.885 4.462 4.462 0 0 1 1.679-.321c.68 0 1.279.12 1.798.402.52.281.92.603 1.239 1.085.32.442.56.965.72 1.528.08.563.12 1.126.08 1.769H15.19c0 .643.24 1.245.56 1.567Zm2.518-4.222c-.28-.28-.72-.442-1.24-.442-.358 0-.639.081-.879.202-.24.12-.399.28-.559.442a1.074 1.074 0 0 0-.28.562c-.04.202-.08.363-.08.523h3.597c-.08-.603-.28-1.005-.56-1.287Zm-3.517-4.22h4.476V8.16H14.75l-.001-1.086Z"/></svg>