<svg xmlns="http://www.w3.org/2000/svg" width="24" height="24" fill="none"><path fill="#B32056" fill-rule="evenodd" d="M3 2h.9v1H3v.9H2V3a1 1 0 0 1 1-1ZM2 21v-.9h1v.9h.9v1H3a1 1 0 0 1-1-1Zm1-2.7H2v-1.8h1v1.8Zm0-3.6H2v-1.8h1v1.8Zm0-3.6H2V9.3h1v1.8Zm0-3.6H2V5.7h1v1.8ZM5.7 3V2h1.8v1H5.7Zm3.6 0V2h1.8v1H9.3Zm3.6 0V2h1.8v1h-1.8Zm3.6 0V2h1.8v1h-1.8Zm3.6 0V2h.9a1 1 0 0 1 1 1v.9h-1V3h-.9Zm.9 2.7h1v1.8h-1V5.7Zm0 3.6h1v1.8h-1V9.3Zm0 3.6h1v1.8h-1v-1.8Zm0 3.6h1v1.8h-1v-1.8Zm0 3.6h1v.9a1 1 0 0 1-1 1h-.9v-1h.9v-.9Zm-2.7.9v1h-1.8v-1h1.8Zm-3.6 0v1h-1.8v-1h1.8Zm-3.6 0v1H9.3v-1h1.8Zm-3.6 0v1H5.7v-1h1.8Zm2.178-9.381c0 .717.284 1.405.791 1.912.211.21.557.21.768 0a.527.527 0 0 0 0-.768 1.616 1.616 0 0 1 0-2.294l1.91-1.91a1.613 1.613 0 0 1 2.294 0 1.615 1.615 0 0 1 0 2.294l-.255.26c.152.422.222.865.217 1.309l.806-.806a2.706 2.706 0 0 0 0-3.825 2.706 2.706 0 0 0-3.825 0L10.47 9.706a2.706 2.706 0 0 0-.791 1.913Zm3.853-1.15a.545.545 0 0 0-.768 0 .525.525 0 0 0 0 .768 1.616 1.616 0 0 1 0 2.294l-1.91 1.91a1.615 1.615 0 0 1-2.294 0 1.615 1.615 0 0 1 0-2.294l.255-.254a3.788 3.788 0 0 1-.217-1.315l-.806.806a2.706 2.706 0 0 0 0 3.825 2.706 2.706 0 0 0 3.825 0l1.915-1.915a2.706 2.706 0 0 0 0-3.825Z" clip-rule="evenodd"/></svg>