<svg xmlns="http://www.w3.org/2000/svg" width="24" height="24" fill="none"><path fill="#B32056" fill-rule="evenodd" d="M6 6H1v9h5V6ZM1 5a1 1 0 0 0-1 1v9a1 1 0 0 0 1 1h5a1 1 0 0 0 1-1V6a1 1 0 0 0-1-1H1Zm13.5 1h-5v9h5V6Zm-5-1a1 1 0 0 0-1 1v9a1 1 0 0 0 1 1h5a1 1 0 0 0 1-1V6a1 1 0 0 0-1-1h-5ZM18 6h5v9h-5V6Zm-1 0a1 1 0 0 1 1-1h5a1 1 0 0 1 1 1v9a1 1 0 0 1-1 1h-5a1 1 0 0 1-1-1V6ZM2 11.625h3v.8H2v-.8Zm3-1.6H2v.8h3v-.8Zm5.5 1.6h3v.8h-3v-.8Zm3-1.6h-3v.8h3v-.8Zm5.5 1.6h3v.8h-3v-.8Zm3-1.6h-3v.8h3v-.8Z" clip-rule="evenodd"/><path fill="#999" fill-rule="evenodd" d="M2.5 8.575h2v.5h-2v-.5Zm8.5 0h2v.5h-2v-.5Zm10.5 0h-2v.5h2v-.5ZM0 18h1.5v1.5H0V18Zm24 0h-1.5v1.5H24V18Z" clip-rule="evenodd"/></svg>