<svg xmlns="http://www.w3.org/2000/svg" width="24" height="24" fill="none"><path fill="#999" fill-rule="evenodd" d="M9 5H0v1h9V5Zm12 0h1v1h-1V5Zm2 0h1v1h-1V5Z" clip-rule="evenodd"/><path fill="#B32056" fill-rule="evenodd" d="M12 9h4v3.352l-1.143-1.324L12.72 14H12V9Zm4.944 5.332A1 1 0 0 1 16 15h-4a1 1 0 0 1-1-1V9a1 1 0 0 1 1-1h4a1 1 0 0 1 1 1v5c0 .117-.02.228-.056.332ZM11 16h6v1h-6v-1Zm13 0h-6v1h6v-1Zm-13 2h4v1h-4v-1Zm11 0h-4v1h4v-1ZM0 16h10v1H0v-1Zm4.988 2H0v1h4.988v-1ZM1 9h8v2.185l-.807-.672-2.002 2.35-1.795-1.496L1.945 14H1V9Zm.013 6H1a1 1 0 0 1-1-1V9a1 1 0 0 1 1-1h8a1 1 0 0 1 1 1v5a1 1 0 0 1-1 1H1.013ZM23 9h-4v5h.72l2.137-2.972L23 12.352V9Zm0 6a1 1 0 0 0 1-1V9a1 1 0 0 0-1-1h-4a1 1 0 0 0-1 1v5a1 1 0 0 0 1 1h4Z" clip-rule="evenodd"/></svg>