<svg xmlns="http://www.w3.org/2000/svg" width="24" height="24" fill="none"><g clip-path="url(#a)"><path fill="#B32056" fill-rule="evenodd" d="M20.25 1.5V0h-1.5v1.5H5.25V0h-1.5v1.5H0V24h24V1.5h-3.75Zm2.25 21h-21v-15h21v15Zm0-16.5h-21V3h2.25v1.5h1.5V3h13.5v1.5h1.5V3h2.25v3ZM9.75 9.75h1.5v1.5h-1.5v-1.5Zm4.5 0h-1.5v1.5h1.5v-1.5Zm1.5 0h1.5v1.5h-1.5v-1.5Zm4.5 0h-1.5v1.5h1.5v-1.5Zm-16.5 3h1.5v1.5h-1.5v-1.5Zm4.5 0h-1.5v1.5h1.5v-1.5Zm1.5 0h1.5v1.5h-1.5v-1.5Zm4.5 0h-1.5v1.5h1.5v-1.5Zm1.5 0h1.5v1.5h-1.5v-1.5Zm4.5 0h-1.5v1.5h1.5v-1.5Zm-16.5 3h1.5v1.5h-1.5v-1.5Zm4.5 0h-1.5v1.5h1.5v-1.5Zm1.5 0h1.5v1.5h-1.5v-1.5Zm4.5 0h-1.5v1.5h1.5v-1.5Zm1.5 0h1.5v1.5h-1.5v-1.5Zm4.5 0h-1.5v1.5h1.5v-1.5Zm-16.5 3h1.5v1.5h-1.5v-1.5Zm4.5 0h-1.5v1.5h1.5v-1.5Zm1.5 0h1.5v1.5h-1.5v-1.5Zm4.5 0h-1.5v1.5h1.5v-1.5Z" clip-rule="evenodd"/></g><defs><clipPath id="a"><path fill="#fff" d="M0 0h24v24H0z"/></clipPath></defs></svg>