<svg xmlns="http://www.w3.org/2000/svg" width="24" height="24" fill="none"><path fill="#B32056" fill-rule="evenodd" d="M16.24 2.76A5.97 5.97 0 0 0 12 1c-1.59 0-3.12.63-4.24 1.76A5.97 5.97 0 0 0 6 7c0 .79.16 1.57.46 2.3.3.72.74 1.39 1.3 1.94.55.56 1.22 1 1.94 1.3.73.3 1.51.46 2.3.46.79 0 1.57-.16 2.3-.46.72-.3 1.39-.74 1.94-1.3.56-.55 1-1.22 1.3-1.94.3-.73.46-1.51.46-2.3 0-1.59-.63-3.12-1.76-4.24Zm.38 6.15c-.25.61-.62 1.16-1.08 1.63-.47.46-1.02.83-1.63 1.08-.6.25-1.25.38-1.91.38-.66 0-1.31-.13-1.91-.38-.61-.25-1.16-.62-1.63-1.08-.46-.47-.83-1.02-1.08-1.63C7.13 8.31 7 7.66 7 7c0-1.33.53-2.6 1.46-3.54C9.4 2.53 10.67 2 12 2s2.6.53 3.54 1.46C16.47 4.4 17 5.67 17 7c0 .66-.13 1.31-.38 1.91Zm-2.63-3.34a2.01 2.01 0 0 0-1.13-1.34c-.12-.05-.24-.09-.36-.12v-.78c0-.27-.22-.5-.5-.5s-.5.23-.5.5v.74c-.13.02-.25.05-.37.1-.16.07-.3.15-.43.26-.29.24-.49.57-.56.94-.08.37-.02.76.17 1.09.18.33.47.59.82.73l1.37.55c.14.05.25.15.32.28.07.13.09.28.06.42-.03.14-.1.27-.21.36a.67.67 0 0 1-.4.14h-.32c-.22 0-.44-.07-.62-.21-.17-.14-.3-.33-.35-.54l-.02-.09a.498.498 0 0 0-.61-.36c-.27.06-.43.34-.36.6l.02.09c.11.43.36.82.71 1.09.23.18.5.31.78.37v.78c0 .27.22.5.5.5s.5-.23.5-.5v-.74c.29-.04.57-.17.8-.36.29-.24.49-.57.56-.94.08-.37.02-.76-.17-1.09-.18-.33-.47-.59-.82-.73l-1.37-.55a.587.587 0 0 1-.32-.28.616.616 0 0 1-.06-.42c.03-.13.09-.25.19-.34l.02-.02a.67.67 0 0 1 .4-.14h.32c.19 0 .38.05.54.16a.197.197 0 0 1 .055.032 1.02 1.02 0 0 1 .375.558l.02.09c.07.27.34.43.61.36.27-.06.43-.34.36-.6l-.02-.09ZM0 19a4 4 0 0 1 4-4h16a4 4 0 0 1 0 8H4a4 4 0 0 1-4-4Zm7.928 1.448c-.221 0-.426-.036-.616-.108a1.48 1.48 0 0 1-.488-.304 1.428 1.428 0 0 1-.32-.46A1.46 1.46 0 0 1 6.392 19c0-.208.038-.4.112-.576.078-.176.186-.33.324-.46a1.48 1.48 0 0 1 .488-.304 1.68 1.68 0 0 1 .608-.108c.222 0 .424.036.608.108a1.435 1.435 0 0 1 .808.764c.078.173.116.365.116.576a1.399 1.399 0 0 1-.44 1.04 1.468 1.468 0 0 1-.484.3 1.644 1.644 0 0 1-.604.108Zm-.004-.552a.89.89 0 0 0 .344-.064.825.825 0 0 0 .464-.468A.942.942 0 0 0 8.8 19a.942.942 0 0 0-.068-.364.816.816 0 0 0-.46-.468.928.928 0 0 0-.348-.064.835.835 0 0 0-.812.532.994.994 0 0 0-.064.364c0 .13.022.252.064.364a.825.825 0 0 0 .464.468.928.928 0 0 0 .348.064Zm-4.66.504v-2.8h1.272c.304 0 .572.059.804.176.232.115.413.276.544.484.13.208.196.455.196.74 0 .283-.066.53-.196.74a1.35 1.35 0 0 1-.544.488c-.232.115-.5.172-.804.172H3.264Zm.648-.532h.592c.186 0 .348-.035.484-.104a.766.766 0 0 0 .32-.304.887.887 0 0 0 .116-.46.873.873 0 0 0-.116-.46.74.74 0 0 0-.32-.3 1.02 1.02 0 0 0-.484-.108h-.592v1.736Zm6.567-2.268h-.536v2.8h.64v-1.7l1.396 1.7h.532v-2.8h-.64v1.699L10.48 17.6Zm3.575 0h.64l1.252 2.8h-.68l-.249-.6H13.72l-.25.6h-.663l1.248-2.8Zm.316.636.444 1.072h-.89l.446-1.072Zm2.306-.108V20.4h.648v-2.272h.896V17.6h-2.44v.528h.896Zm2.536 1.752v-.648h1.3v-.504h-1.3v-.608h1.472v-.52h-2.116v2.8h2.168v-.52h-1.524Z" clip-rule="evenodd"/></svg>