<svg width="30" height="30" viewBox="0 0 30 30" fill="none" xmlns="http://www.w3.org/2000/svg">
<path d="M1.76465 20.3828H5.19922C5.37649 20.3831 5.52043 20.5268 5.52051 20.7041V27.4307C5.52047 27.608 5.37651 27.7517 5.19922 27.752H1.76465C1.58721 27.7519 1.4434 27.6081 1.44336 27.4307V20.7041C1.44344 20.5267 1.58724 20.3829 1.76465 20.3828Z" stroke="white" stroke-width="1.5"/>
<path d="M5.96094 27.0229L10.9643 28.4172C12.1817 28.7565 13.4397 28.9285 14.7034 28.9285H17.6298C19.4654 28.9285 21.2258 28.1995 22.524 26.9018L27.8748 21.5532C28.6644 20.764 28.6645 19.484 27.8751 18.6945C27.086 17.9053 25.8065 17.905 25.017 18.694L20.769 22.9391" stroke="white" stroke-width="1.5"/>
<path d="M12.8134 24.7917H19.6759C20.2677 24.7917 20.7473 24.312 20.7473 23.7202V22.8104C20.7473 21.6269 19.788 20.6676 18.6045 20.6676H14.3162C13.1747 19.6092 9.794 18.127 5.87891 20.3875" stroke="white" stroke-width="1.5"/>
<path d="M16.4229 1.82031C20.4273 1.82037 23.6738 5.06737 23.6738 9.07227C23.6736 13.0769 20.4271 16.3232 16.4229 16.3232C12.4185 16.3232 9.17214 13.077 9.17188 9.07227C9.17188 5.06734 12.4184 1.82031 16.4229 1.82031Z" stroke="white" stroke-width="1.5"/>
<path fill-rule="evenodd" clip-rule="evenodd" d="M19.0806 7.15915C18.9337 6.5849 18.5998 6.06407 18.1324 5.7035C17.9588 5.56995 17.7718 5.44976 17.5715 5.36964C17.4112 5.30286 17.251 5.24945 17.0907 5.20938V4.16773C17.0907 3.80715 16.7969 3.5 16.423 3.5C16.0491 3.5 15.7553 3.80715 15.7553 4.16773V5.15596C15.5817 5.18267 15.4214 5.22274 15.2612 5.28951C15.0475 5.38299 14.8605 5.48983 14.6869 5.63673C14.2996 5.95724 14.0325 6.39794 13.9391 6.89205C13.8322 7.38617 13.9123 7.907 14.1661 8.3477C14.4065 8.7884 14.7937 9.13562 15.2612 9.32258L17.0907 10.0571C17.2777 10.1239 17.4246 10.2574 17.5181 10.431C17.6116 10.6046 17.6383 10.8049 17.5982 10.9919C17.5581 11.1789 17.4647 11.3525 17.3178 11.4727C17.1575 11.5929 16.9705 11.6596 16.7836 11.6596H16.3562C16.0624 11.6596 15.7686 11.5661 15.5282 11.3792C15.3012 11.1922 15.1276 10.9385 15.0608 10.658L15.0341 10.5378C14.9406 10.1773 14.5801 9.9636 14.2195 10.0571C13.8589 10.1372 13.6453 10.5111 13.7387 10.8584L13.7654 10.9785C13.9123 11.5528 14.2462 12.0736 14.7136 12.4342C15.0208 12.6746 15.3813 12.8482 15.7553 12.9283V13.97C15.7553 14.3305 16.0491 14.6377 16.423 14.6377C16.7969 14.6377 17.0907 14.3305 17.0907 13.97V12.9817C17.478 12.9283 17.8519 12.7547 18.1591 12.501C18.5464 12.1805 18.8135 11.7398 18.9069 11.2456C19.0138 10.7515 18.9337 10.2307 18.6799 9.78999C18.4395 9.34929 18.0523 9.00207 17.5848 8.81511L15.7553 8.08061C15.5683 8.01384 15.4214 7.88029 15.3279 7.70668C15.2344 7.53307 15.2077 7.33276 15.2478 7.14579C15.2879 6.97218 15.368 6.81193 15.5015 6.69174C15.5015 6.69174 15.5104 6.68283 15.5282 6.66503C15.6885 6.54484 15.8755 6.47806 16.0624 6.47806H16.4898C16.7435 6.47806 16.9972 6.54484 17.2109 6.69174C17.251 6.70509 17.2777 6.7318 17.3178 6.75851C17.5448 6.94547 17.7184 7.19921 17.7852 7.47966L17.8119 7.59985C17.9054 7.96042 18.2659 8.17409 18.6265 8.08061C18.9871 8.00048 19.2007 7.62655 19.1073 7.27934L19.0806 7.15915Z" fill="white"/>
</svg>
