<svg xmlns="http://www.w3.org/2000/svg" width="24" height="24" fill="none"><g clip-path="url(#a)"><path fill="#B32056" fill-rule="evenodd" d="M0 0h8.4v2.182H6.3v8.727h3.774a8.062 8.062 0 0 0 0 2.182H6.3v8.727h2.1V24H0v-2.182h2.1V2.182H0V0Zm18 4a7.971 7.971 0 0 0-3.3.71V2.182h-2.1V0H21v2.182h-2.1V4.05A8.087 8.087 0 0 0 18 4Zm0 16c.304 0 .605-.017.9-.05v1.868H21V24h-8.4v-2.182h2.1V19.29A7.97 7.97 0 0 0 18 20Zm6-8a6 6 0 1 1-12 0 6 6 0 0 1 12 0Zm-7.636-2.727L20.727 12l-4.363 2.727V9.273Z" clip-rule="evenodd"/></g><defs><clipPath id="a"><path fill="#fff" d="M0 0h24v24H0z"/></clipPath></defs></svg>