<svg xmlns="http://www.w3.org/2000/svg" width="24" height="24" fill="none"><g clip-path="url(#a)"><path fill="#999" d="M1.997 12h2v1h-2v-1Z"/><path fill="#B32056" fill-rule="evenodd" d="M8.667 5h6.666v6.5H8.667V5Zm0 7.5V19h6.666v-6.5H8.667Zm7.666 0v1.75H23V5h-6.667v7.5ZM7.667 4H23a1 1 0 0 1 1 1v9.25h.002v1H24V19a1 1 0 0 1-1 1H1a1 1 0 0 1-1-1V5a1 1 0 0 1 1-1h6.667Zm8.666 11.25H23V19h-6.667v-3.75ZM7.667 19H1V5h6.667v14Zm14.336-8.75h-4.67v1h4.67v-1ZM17.333 17h4.67v1h-4.67v-1ZM1.997 17h3v1h-3v-1Zm4.67-2h-4.67v1h4.67v-1Zm2.998-5.5h3v1h-3v-1Zm10.668 2.75h-3v1h3v-1ZM9.665 17h3v1h-3v-1Zm4.67-9.5h-4.67v1h4.67v-1ZM9.665 15h4.67v1h-4.67v-1Z" clip-rule="evenodd"/></g><defs><clipPath id="a"><path fill="#fff" d="M0 0h24v24H0z"/></clipPath></defs></svg>