<svg xmlns="http://www.w3.org/2000/svg" width="24" height="24" fill="none"><g clip-path="url(#a)"><path fill="#B32056" fill-rule="evenodd" d="M16.333 5H23v4.17h-6.667V5ZM24 5v4.17h.002v1H24V19a1 1 0 0 1-1 1H1a1 1 0 0 1-1-1V5a1 1 0 0 1 1-1h22a1 1 0 0 1 1 1ZM1 12.5V19h6.667v-6.5H1Zm6.667-1H1V5h6.667v6.5Zm1 1V5h6.666v14H8.667v-6.5Zm7.666-2.33H23V19h-6.667v-8.83Zm5.67-3h-4.67v1h4.67v-1ZM17.333 17h3v1h-3v-1ZM4.998 9.5h-3v1h3v-1Zm-3 7.5h3v1h-3v-1Zm20.005-2h-4.67v1h4.67v-1ZM1.998 7.5h4.67v1h-4.67v-1Zm4.67 7.5h-4.67v1h4.67v-1Zm2.999 2h3v1h-3v-1Zm4.67-2h-4.67v1h4.67v-1Z" clip-rule="evenodd"/><path fill="#999" d="M9.667 12h2v1h-2v-1Z"/></g><defs><clipPath id="a"><path fill="#fff" d="M0 0h24v24H0z"/></clipPath></defs></svg>