<svg xmlns="http://www.w3.org/2000/svg" width="24" height="24" fill="none"><path fill="#B32056" fill-rule="evenodd" d="M15.333 5H8.667v14h6.666V5ZM8.667 4H1a1 1 0 0 0-1 1v14a1 1 0 0 0 1 1h22a1 1 0 0 0 1-1V5a1 1 0 0 0-1-1H8.667ZM1 19h6.667V5H1v14ZM16.333 5v14H23V5h-6.667ZM2 17h3v1H2v-1Zm10.667 0h-3v1h3v-1Zm4.666 0h3v1h-3v-1ZM6.67 15H2v1h4.67v-1Zm2.997 0h4.67v1h-4.67v-1Zm12.336 0h-4.67v1h4.67v-1Z" clip-rule="evenodd"/><path fill="#999" fill-rule="evenodd" d="M2 12h2v1H2v-1Zm7.667 0h2v1h-2v-1Zm9.666 0h-2v1h2v-1Z" clip-rule="evenodd"/></svg>