<svg xmlns="http://www.w3.org/2000/svg" width="24" height="24" fill="none"><g clip-path="url(#a)"><path fill="#B32056" fill-rule="evenodd" d="M8.667 5h6.666v4.17H8.667V5Zm0 5.17h6.666v3.66H8.667v-3.66Zm-1 3.66V5H1v8.83h6.667ZM0 14.83V5a1 1 0 0 1 1-1h22a1 1 0 0 1 1 1v4.17h.002v1H24V19a1 1 0 0 1-1 1H1a1 1 0 0 1-1-1v-4.17Zm1 0h6.667V19H1v-4.17Zm7.667 0V19h6.666v-4.17H8.667ZM23 9.17V5h-6.667v4.17H23Zm-6.667 1H23V19h-6.667v-8.83ZM14.337 17h-4.67v1h4.67v-1Zm-4.67-5.17h4.67v1h-4.67v-1Zm4.67-4.66h-4.67v1h4.67v-1Zm2.996 0h4.67v1h-4.67v-1ZM6.67 17H2v1h4.67v-1Zm10.663 0h3v1h-3v-1ZM4.998 11.83h-3v1h3v-1ZM17.333 15h4.67v1h-4.67v-1ZM6.668 9.83h-4.67v1h4.67v-1Z" clip-rule="evenodd"/></g><defs><clipPath id="a"><path fill="#fff" d="M0 0h24v24H0z"/></clipPath></defs></svg>