<svg xmlns="http://www.w3.org/2000/svg" width="24" height="24" fill="none"><path fill="#B32056" fill-rule="evenodd" d="M12.5 5h4.75v6.5H12.5V5Zm0-1H23a1 1 0 0 1 1 1v14a1 1 0 0 1-1 1H1a1 1 0 0 1-1-1V5a1 1 0 0 1 1-1h11.5Zm5.75 7.5V5H23v6.5h-4.75Zm-5.75 1h4.75V19H12.5v-6.5Zm5.75 0V19H23v-6.5h-4.75Zm-6.75 0V5H1v14h10.5v-6.5Zm7.75 4.5h2v1h-2v-1Zm2-7.5h-2v1h2v-1ZM13.5 17h2v1h-2v-1Zm2-7.5h-2v1h2v-1ZM2 17h4v1H2v-1Zm14.25-2H13.5v1h2.75v-1ZM13.5 7.5h2.75v1H13.5v-1ZM22 15h-2.75v1H22v-1Zm-2.75-7.5H22v1h-2.75v-1ZM9 15H2v1h7v-1Z" clip-rule="evenodd"/><path fill="#999" d="M2 12h2v1H2v-1Z"/></svg>