<svg xmlns="http://www.w3.org/2000/svg" width="24" height="24" fill="none"><path fill="#B32056" fill-rule="evenodd" d="M18.25 5H23v6.5h-4.75V5Zm-1-1H23a1 1 0 0 1 1 1v14a1 1 0 0 1-1 1H1a1 1 0 0 1-1-1V5a1 1 0 0 1 1-1h16.25Zm0 15H12.5V5h4.75v14Zm1 0H23v-6.5h-4.75V19Zm-6.75 0H1V5h10.5v14Zm7.75-2h2v1h-2v-1Zm2-7.5h-2v1h2v-1ZM13.5 17h2v1h-2v-1ZM6 17H2v1h4v-1Zm7.5-2h2.75v1H13.5v-1Zm8.5 0h-2.75v1H22v-1Zm-2.75-7.5H22v1h-2.75v-1ZM9 15H2v1h7v-1Z" clip-rule="evenodd"/><path fill="#999" d="M2 12h2v1H2v-1Z"/></svg>