<svg xmlns="http://www.w3.org/2000/svg" width="24" height="24" fill="none"><path fill="#B32056" fill-rule="evenodd" d="M16 5H8v5.096l2.58-2.334 1.9 1.333L14.6 7l1.4.982V5Zm-3 6h-2v1H8v7h8v-7h-3v-1Zm4 0v8a1 1 0 0 1-1 1H8a1 1 0 0 1-1-1V5a1 1 0 0 1 1-1h8a1 1 0 0 1 1 1v6Zm-6.5-4.25a.75.75 0 1 1-1.5 0 .75.75 0 0 1 1.5 0ZM23 5h-4v2.667h1.071L21.857 6 23 6.889V5Zm-4 3.667h4a1 1 0 0 0 1-1V5a1 1 0 0 0-1-1h-4a1 1 0 0 0-1 1v2.667a1 1 0 0 0 1 1Zm2.857 3 1.143.889v-1.89h-4v2.667h1.071l1.786-1.666ZM24 13.333a1 1 0 0 1-1 1h-4a1 1 0 0 1-1-1v-2.666a1 1 0 0 1 1-1h4a1 1 0 0 1 1 1v2.666ZM24 19v-2.667a1 1 0 0 0-1-1h-4a1 1 0 0 0-1 1V19a1 1 0 0 0 1 1h4a1 1 0 0 0 1-.968V19Zm-1-.778-1.143-.889L20.071 19H19v-2.667h4v1.89ZM4 6.5H0v1h4v-1Zm-4 6h4v1H0v-1ZM14 17h-4v1h4v-1ZM0 18.5h4v1H0v-1Zm5-14H0v1h5v-1Zm-5 6h5v1H0v-1ZM15 15H9v1h6v-1Zm-6-2h6v1H9v-1Zm-4 3.5H0v1h5v-1Z" clip-rule="evenodd"/></svg>