<svg xmlns="http://www.w3.org/2000/svg" width="24" height="24" fill="none"><g clip-path="url(#a)"><path fill="#B32056" fill-rule="evenodd" d="M14.94 0H9.06A4.06 4.06 0 0 0 5 4.06v5.88C5 12.18 6.82 14 9.06 14h5.88A4.06 4.06 0 0 0 19 9.94V4.06C19 1.82 17.18 0 14.94 0ZM7.138 2.138A2.52 2.52 0 0 1 8.92 1.4h6.16a2.518 2.518 0 0 1 2.52 2.52v6.16a2.52 2.52 0 0 1-2.52 2.52H8.92a2.518 2.518 0 0 1-2.52-2.52V3.92c0-.668.265-1.31.738-1.782Zm9.156.568a.875.875 0 1 0-1.238 1.238.875.875 0 0 0 1.238-1.238Zm-1.82 1.82a3.5 3.5 0 1 0-4.949 4.949 3.5 3.5 0 0 0 4.95-4.95Zm-3.959.99a2.1 2.1 0 1 1 2.97 2.969 2.1 2.1 0 0 1-2.97-2.97ZM6 18H1v5l3.429-3.625L6 20.987V18Zm-5-1a1 1 0 0 0-1 1v5a1 1 0 0 0 1 1h5a1 1 0 0 0 1-1v-5a1 1 0 0 0-1-1H1Zm17 1h5v2.987l-1.571-1.612L18 23v-5Zm-1 0a1 1 0 0 1 1-1h5a1 1 0 0 1 1 1v5a1 1 0 0 1-1 1h-5a1 1 0 0 1-1-1v-5Zm-2.5 2.987V18h-5v5l3.429-3.625 1.571 1.612ZM9.5 17a1 1 0 0 0-1 1v5a1 1 0 0 0 1 1h5a1 1 0 0 0 1-1v-5a1 1 0 0 0-1-1h-5Z" clip-rule="evenodd"/></g><defs><clipPath id="a"><path fill="#fff" d="M0 0h24v24H0z"/></clipPath></defs></svg>