<svg xmlns="http://www.w3.org/2000/svg" width="24" height="24" fill="none"><g fill="#B32056" clip-path="url(#a)"><path d="M0 3h1.5v4H0zM0 21h1.5v-4H0zM24 3h-1.5v4H24zM24 21h-1.5v-4H24z"/><path d="M0 4.5V3h4v1.5zM0 19.5V21h4v-1.5zM24 4.5V3h-4v1.5zM24 19.5V21h-4v-1.5zM3.08 13.9V9h1.386v3.801h2.338V13.9H3.08ZM9.18 13.963c-.415 0-.784-.084-1.106-.252a1.956 1.956 0 0 1-.763-.693 1.924 1.924 0 0 1-.273-1.022c0-.383.091-.721.273-1.015.187-.294.441-.523.763-.686.322-.168.69-.252 1.106-.252.415 0 .784.084 1.106.252.327.163.581.392.763.686.182.294.273.632.273 1.015 0 .383-.09.723-.273 1.022a1.894 1.894 0 0 1-.763.693c-.322.168-.69.252-1.106.252Zm0-1.057c.154 0 .29-.035.406-.105a.735.735 0 0 0 .287-.308 1.1 1.1 0 0 0 .105-.497c0-.191-.035-.352-.105-.483a.735.735 0 0 0-.287-.308.774.774 0 0 0-.406-.105.798.798 0 0 0-.406.105.798.798 0 0 0-.287.308c-.07.13-.105.292-.105.483s.035.357.105.497c.075.135.17.238.287.308.121.07.257.105.406.105ZM13.793 15.321c-.364 0-.711-.042-1.043-.126a2.565 2.565 0 0 1-.84-.371l.483-.931c.159.126.355.224.588.294.238.075.47.112.693.112.36 0 .619-.08.777-.238.159-.154.238-.38.238-.679v-.448l.07-1.064-.007-1.071v-.693h1.267v3.101c0 .719-.193 1.25-.58 1.596-.388.345-.937.518-1.646.518Zm-.23-1.617c-.337 0-.647-.075-.932-.224a1.852 1.852 0 0 1-.679-.637 1.831 1.831 0 0 1-.252-.973c0-.373.084-.695.252-.966.173-.275.4-.488.68-.637.284-.15.594-.224.93-.224.322 0 .598.065.826.196.229.126.402.324.518.595.121.27.182.616.182 1.036 0 .42-.06.765-.182 1.036-.117.27-.29.471-.518.602-.229.13-.504.196-.826.196Zm.314-1.057a.873.873 0 0 0 .42-.098.722.722 0 0 0 .294-.273.737.737 0 0 0 .112-.406.737.737 0 0 0-.406-.672.873.873 0 0 0-.42-.098.914.914 0 0 0-.427.098.722.722 0 0 0-.3.266.774.774 0 0 0-.106.406c0 .154.035.29.105.406a.772.772 0 0 0 .301.273.914.914 0 0 0 .427.098ZM18.778 13.963c-.416 0-.784-.084-1.106-.252a1.956 1.956 0 0 1-.763-.693 1.924 1.924 0 0 1-.273-1.022c0-.383.09-.721.273-1.015.186-.294.44-.523.763-.686.322-.168.69-.252 1.106-.252.415 0 .784.084 1.106.252.326.163.58.392.763.686.182.294.273.632.273 1.015 0 .383-.091.723-.273 1.022a1.894 1.894 0 0 1-.763.693c-.322.168-.69.252-1.106.252Zm0-1.057c.154 0 .29-.035.406-.105a.734.734 0 0 0 .287-.308 1.1 1.1 0 0 0 .105-.497c0-.191-.035-.352-.105-.483a.734.734 0 0 0-.287-.308.774.774 0 0 0-.406-.105.798.798 0 0 0-.406.105.8.8 0 0 0-.287.308c-.07.13-.105.292-.105.483s.035.357.105.497a.8.8 0 0 0 .287.308c.121.07.256.105.406.105Z"/></g><defs><clipPath id="a"><path fill="#fff" d="M0 0h24v24H0z"/></clipPath></defs></svg>