<svg xmlns="http://www.w3.org/2000/svg" width="24" height="24" fill="none"><path fill="#B32056" fill-rule="evenodd" d="M11 3H0v1h11V3ZM9 5H0v1h9V5ZM0 9a1 1 0 0 1 1-1h3a1 1 0 0 1 0 2H1a1 1 0 0 1-1-1Zm11 4H0v1h11v-1ZM0 15h9v1H0v-1Zm1 3a1 1 0 1 0 0 2h3a1 1 0 1 0 0-2H1ZM23 4h-9v6h.931l2.838-3.048 2 1.667L22 6l1 .833V4Zm1 3.667V4a1 1 0 0 0-1-1h-9a1 1 0 0 0-1 1v6a1 1 0 0 0 1 1h9a1 1 0 0 0 1-1V7.667ZM16 7a1 1 0 1 0 0-2 1 1 0 0 0 0 2Zm7 7h-9v6h.931l2.838-3.048 2 1.667L22 16l1 .833V14Zm1 3.667V14a1 1 0 0 0-1-1h-9a1 1 0 0 0-1 1v6a1 1 0 0 0 1 1h9a1 1 0 0 0 1-1v-2.333ZM16 17a1 1 0 1 0 0-2 1 1 0 0 0 0 2Z" clip-rule="evenodd"/></svg>