<svg xmlns="http://www.w3.org/2000/svg" width="24" height="24" fill="none"><path fill="#B32056" fill-rule="evenodd" d="M10 2H1v4h1.048l2.344-2.238 1.8 1.333L8.2 3 10 4.333V2ZM9 7h1a1 1 0 0 0 1-1V2a1 1 0 0 0-1-1H1a1 1 0 0 0-1 1v4a1 1 0 0 0 1 1h8Zm8.392-3.238L15.048 6H14V2h9v2.333L21.2 3l-2.008 2.095-1.8-1.333ZM23 7h-9a1 1 0 0 1-1-1V2a1 1 0 0 1 1-1h9a1 1 0 0 1 1 1v4a1 1 0 0 1-1 1ZM11 8H0v1h11V8Zm2 0h11v1H13V8Zm-4 2H0v1h9v-1Zm4 0h9v1h-9v-1Zm-8.571 5L6 16.528V14H1v4h.857l2.572-3ZM1 19a1 1 0 0 1-1-1v-4a1 1 0 0 1 1-1h5a1 1 0 0 1 1 1v4a1 1 0 0 1-1 1H1Zm-1 1h7v1H0v-1Zm5 2H0v1h5v-1Zm9.5-5.472L12.929 15l-2.572 3H9.5v-4h5v2.528Zm0 2.472a1 1 0 0 0 1-1v-4a1 1 0 0 0-1-1h-5a1 1 0 0 0-1 1v4a1 1 0 0 0 1 1h5Zm1 1h-7v1h7v-1Zm-2 2v1h-5v-1h5Zm7.929-7L23 16.528V14h-5v4h.857l2.572-3ZM24 18a1 1 0 0 1-1 1h-5a1 1 0 0 1-1-1v-4a1 1 0 0 1 1-1h5a1 1 0 0 1 1 1v4Zm-7 2h7v1h-7v-1Zm5 2h-5v1h5v-1Z" clip-rule="evenodd"/></svg>