<svg xmlns="http://www.w3.org/2000/svg" width="24" height="24" fill="none"><path fill="#B32056" fill-rule="evenodd" d="M1 2h9v2.333L8.2 3 6.192 5.095l-1.8-1.333L2.048 6H1V2Zm8 5h1a1 1 0 0 0 1-1V2a1 1 0 0 0-1-1H1a1 1 0 0 0-1 1v4a1 1 0 0 0 1 1h8Zm-8 7h9v2.333L8.2 15l-2.008 2.095-1.8-1.333L2.048 18H1v-4Zm8 5h1a1 1 0 0 0 1-1v-4a1 1 0 0 0-1-1H1a1 1 0 0 0-1 1v4a1 1 0 0 0 1 1h8Zm8.392-15.238L15.048 6H14V2h9v2.333L21.2 3l-2.008 2.095-1.8-1.333ZM23 7h-9a1 1 0 0 1-1-1V2a1 1 0 0 1 1-1h9a1 1 0 0 1 1 1v4a1 1 0 0 1-1 1Zm-5.608 8.762L15.048 18H14v-4h9v2.333L21.2 15l-2.008 2.095-1.8-1.333ZM13 14a1 1 0 0 1 1-1h9a1 1 0 0 1 1 1v4a1 1 0 0 1-1 1h-9a1 1 0 0 1-1-1v-4ZM0 8h11v1H0V8Zm11 12H0v1h11v-1Zm2-12h11v1H13V8Zm11 12H13v1h11v-1ZM0 10h9v1H0v-1Zm9 12H0v1h9v-1Zm4-12h9v1h-9v-1Zm9 12h-9v1h9v-1Z" clip-rule="evenodd"/></svg>