<svg xmlns="http://www.w3.org/2000/svg" width="24" height="24" fill="none"><path fill="#B32056" fill-rule="evenodd" d="M1 4h9v2.833L9 6 6.77 8.619l-2-1.667L1.93 10H1V4Zm10 3.667V4a1 1 0 0 0-1-1H1a1 1 0 0 0-1 1v6a1 1 0 0 0 1 1h9a1 1 0 0 0 1-1V7.667ZM3 7a1 1 0 1 0 0-2 1 1 0 0 0 0 2Zm10-4h11v1H13V3Zm9 2h-9v1h9V5Zm-9 4a1 1 0 0 1 1-1h3a1 1 0 1 1 0 2h-3a1 1 0 0 1-1-1ZM1 14h9v2.833L9 16l-2.23 2.619-2-1.667L1.93 20H1v-6Zm10 0v6a1 1 0 0 1-1 1H1a1 1 0 0 1-1-1v-6a1 1 0 0 1 1-1h9a1 1 0 0 1 1 1Zm-7 2a1 1 0 1 1-2 0 1 1 0 0 1 2 0Zm20-3H13v1h11v-1Zm-11 2h9v1h-9v-1Zm1 3a1 1 0 1 0 0 2h3a1 1 0 1 0 0-2h-3Z" clip-rule="evenodd"/></svg>