<svg xmlns="http://www.w3.org/2000/svg" width="24" height="24" fill="none"><path fill="#B32056" fill-rule="evenodd" d="M23 3H1v1h22V3Zm-1 3h-6v4h1l3-3 2 1.667V6Zm-7 4a1 1 0 0 0 1 1h6a1 1 0 0 0 1-1V6a1 1 0 0 0-1-1h-6a1 1 0 0 0-1 1v4ZM1 5h10v1H1V5Zm19 12 2 1.667V16h-6v4h1l3-3Zm3 3a1 1 0 0 1-1 1h-6a1 1 0 0 1-1-1v-4a1 1 0 0 1 1-1h6a1 1 0 0 1 1 1v4ZM1 13h22v1H1v-1Zm10 2H1v1h10v-1Z" clip-rule="evenodd"/><path fill="#999" d="M1 7.5h12v1H1v-1ZM1 9.5h10v1H1v-1ZM1 17.5h12v1H1v-1ZM1 19.5h10v1H1v-1Z"/></svg>