<svg xmlns="http://www.w3.org/2000/svg" width="24" height="24" fill="none"><path fill="#B32056" fill-rule="evenodd" d="M1 1a1 1 0 0 0-1 1v9a1 1 0 0 0 1 1h22a1 1 0 0 0 1-1V2a1 1 0 0 0-1-1H1Zm19 6H2v1h18V7ZM2 9h14v1H2V9Zm2-4H2v1h2V5ZM0 22h11v1H0v-1Zm24 0H13v1h11v-1ZM1 15h9v1.667L9 16l-2.23 2.095-2-1.333L2.163 19H4v1H1v-5Zm-1 0a1 1 0 0 1 1-1h9a1 1 0 0 1 1 1v5a1 1 0 0 1-1 1H1a1 1 0 0 1-1-1v-5Zm23 0h-9v5h3v-1h-1.836l2.605-2.238 2 1.333L22 16l1 .667V15Zm-9-1a1 1 0 0 0-1 1v5a1 1 0 0 0 1 1h9a1 1 0 0 0 1-1v-5a1 1 0 0 0-1-1h-9Z" clip-rule="evenodd"/></svg>