<svg xmlns="http://www.w3.org/2000/svg" width="24" height="24" fill="none"><path fill="#B32056" fill-rule="evenodd" d="M10 4H1v7h.776l2.993-3.857 2 2L9 6l1 1V4Zm1 4V4a1 1 0 0 0-1-1H1a1 1 0 0 0-1 1v7a1 1 0 0 0 1 1h9a1 1 0 0 0 1-1V8ZM4 6a1 1 0 1 1-2 0 1 1 0 0 1 2 0Zm10-3a1 1 0 0 0-1 1v1a1 1 0 0 0 1 1h2a1 1 0 0 0 1-1V4a1 1 0 0 0-1-1h-2Zm-1 6a1 1 0 0 1 1-1h2a1 1 0 0 1 1 1v1a1 1 0 0 1-1 1h-2a1 1 0 0 1-1-1V9Zm1 4a1 1 0 0 0-1 1v1a1 1 0 0 0 1 1h2a1 1 0 0 0 1-1v-1a1 1 0 0 0-1-1h-2Zm-1 6a1 1 0 0 1 1-1h2a1 1 0 0 1 1 1v1a1 1 0 0 1-1 1h-2a1 1 0 0 1-1-1v-1ZM24 3h-6v1h6V3Zm-6 5h6v1h-6V8Zm6 5h-6v1h6v-1Zm-6 5h6v1h-6v-1Zm4-13h-4v1h4V5Zm-4 5h4v1h-4v-1Zm4 5h-4v1h4v-1Zm-4 5h4v1h-4v-1Zm-7-6H0v1h11v-1ZM0 16h9v1H0v-1Zm1 3a1 1 0 1 0 0 2h3a1 1 0 1 0 0-2H1Z" clip-rule="evenodd"/></svg>