<svg xmlns="http://www.w3.org/2000/svg" width="24" height="24" fill="none"><path fill="#B32056" fill-rule="evenodd" d="M1 3a1 1 0 0 0-1 1v6a1 1 0 0 0 1 1h9a1 1 0 0 0 1-1V4a1 1 0 0 0-1-1H1Zm5 6H1v1h5V9ZM1 7h9v1H1V7Zm13-4a1 1 0 0 0-1 1v6a1 1 0 0 0 1 1h9a1 1 0 0 0 1-1V4a1 1 0 0 0-1-1h-9Zm5 6h-5v1h5V9Zm-5-2h9v1h-9V7ZM0 13h1v1H0v-1Zm14 0h-1v1h1v-1ZM0 18h1v1H0v-1Zm14 0h-1v1h1v-1ZM2 13h9v1H2v-1Zm22 0h-9v1h9v-1ZM2 18h9v1H2v-1Zm22 0h-9v1h9v-1ZM2 15h8v1H2v-1Zm21 0h-8v1h8v-1Zm-13 5v1H2v-1h8Zm13 1v-1h-8v1h8Z" clip-rule="evenodd"/></svg>