<svg xmlns="http://www.w3.org/2000/svg" width="24" height="24" fill="none"><path fill="#999" fill-rule="evenodd" d="M5.25 6.75h-3.5v.5h3.5v-.5Zm17 13h-3.5v.5h3.5v-.5Zm-20.5 0h3.5v.5h-3.5v-.5Zm20.5-11h-3.5v.5h3.5v-.5Zm-20.5 12h3v.5h-3v-.5Zm3-13h-3v.5h3v-.5Zm14 13h3v.5h-3v-.5Zm3-11h-3v.5h3v-.5Z" clip-rule="evenodd"/><path fill="#B32056" fill-rule="evenodd" d="M1 2h1.75v.5H1V2Zm0 4v3h5V6H1ZM0 2a1 1 0 0 1 1-1h5a1 1 0 0 1 1 1v7a1 1 0 0 1-1 1H1a1 1 0 0 1-1-1V2Zm18 13h1.75v.5H18V15Zm0 4v3h5v-3h-5Zm-1-4a1 1 0 0 1 1-1h5a1 1 0 0 1 1 1v7a1 1 0 0 1-1 1h-5a1 1 0 0 1-1-1v-7Zm2.75-13H18v.5h1.75V2ZM18 11V8h5v3h-5Zm0-10a1 1 0 0 0-1 1v9a1 1 0 0 0 1 1h5a1 1 0 0 0 1-1V2a1 1 0 0 0-1-1h-5ZM1 13h1.75v.5H1V13Zm0 6v3h5v-3H1Zm-1-6a1 1 0 0 1 1-1h5a1 1 0 0 1 1 1v9a1 1 0 0 1-1 1H1a1 1 0 0 1-1-1v-9ZM9.5 1a1 1 0 0 0-1 1v17a1 1 0 0 0 1 1h5a1 1 0 0 0 1-1V2a1 1 0 0 0-1-1h-5Zm5 9.25h-5v.5h5v-.5Zm-5-1.5h5v.5h-5v-.5Zm4 3h-4v.5h4v-.5ZM9.5 2h1.75v.5H9.5V2Z" clip-rule="evenodd"/></svg>