<svg xmlns="http://www.w3.org/2000/svg" width="24" height="24" fill="none"><path fill="#B32056" fill-rule="evenodd" d="M3.242 6H1V3h9v2L8.4 4 6.615 5.571l-1.6-1L3.242 6ZM10 7H1v2H0V3a1 1 0 0 1 1-1h9a1 1 0 0 1 1 1v6h-1V7ZM2.75 5a.75.75 0 1 0 0-1.5.75.75 0 0 0 0 1.5ZM9 8H2v1h7V8Zm-7 2h7v1H2v-1Zm1.242 7H1v-3h9v2l-1.6-1-1.785 1.571-1.6-1L3.242 17ZM10 18H1v2H0v-6a1 1 0 0 1 1-1h9a1 1 0 0 1 1 1v6h-1v-2Zm-7.25-2a.75.75 0 1 0 0-1.5.75.75 0 0 0 0 1.5ZM9 19H2v1h7v-1Zm-7 2h7v1H2v-1ZM14 6h2.242l1.773-1.429 1.6 1L21.4 4 23 5V3h-9v3Zm8.2 1h.8v2h1V3a1 1 0 0 0-1-1h-9a1 1 0 0 0-1 1v6h1V7h8.2Zm-5.7-2.75a.75.75 0 1 1-1.5 0 .75.75 0 0 1 1.5 0ZM15 8h7v1h-7V8Zm7 2h-7v1h7v-1Zm-5.758 7H14v-3h9v2l-1.6-1-1.785 1.571-1.6-1L16.242 17ZM23 18h-9v2h-1v-6a1 1 0 0 1 1-1h9a1 1 0 0 1 1 1v6h-1v-2Zm-7.25-2a.75.75 0 1 0 0-1.5.75.75 0 0 0 0 1.5ZM22 19h-7v1h7v-1Zm-7 2h7v1h-7v-1Z" clip-rule="evenodd"/></svg>