<svg xmlns="http://www.w3.org/2000/svg" width="24" height="24" fill="none"><path fill="#999" fill-rule="evenodd" d="M21 5H11v1h10V5Zm2 11H11v1h12v-1ZM11 7h12v1H11V7Zm8 11h-8v1h8v-1Z" clip-rule="evenodd"/><path fill="#B32056" fill-rule="evenodd" d="M1 2h22v1h-7v1H1V2Zm7 4H2v4h1l3-3 2 1.667V6Zm-7 4a1 1 0 0 0 1 1h6a1 1 0 0 0 1-1V6a1 1 0 0 0-1-1H2a1 1 0 0 0-1 1v4Zm5 8 2 1.667V17H2v4h1l3-3Zm3 3a1 1 0 0 1-1 1H2a1 1 0 0 1-1-1v-4a1 1 0 0 1 1-1h6a1 1 0 0 1 1 1v4Zm14-8H1v2h12v-1h10v-1Zm-12-3a1 1 0 0 1 1-1h3a1 1 0 1 1 0 2h-3a1 1 0 0 1-1-1Zm1 10a1 1 0 1 0 0 2h3a1 1 0 1 0 0-2h-3Z" clip-rule="evenodd"/></svg>