<svg xmlns="http://www.w3.org/2000/svg" width="24" height="24" fill="none"><path fill="#B32056" fill-rule="evenodd" d="M1 4a1 1 0 0 0-1 1v1a1 1 0 0 0 1 1h2a1 1 0 0 0 1-1V5a1 1 0 0 0-1-1H1Zm13 0a1 1 0 0 0-1 1v1a1 1 0 0 0 1 1h2a1 1 0 0 0 1-1V5a1 1 0 0 0-1-1h-2ZM5 4h6v1H5V4Zm19 0h-6v1h6V4ZM5 6h4v1H5V6Zm17 0h-4v1h4V6ZM0 11h11v1H0v-1Zm24 0H13v1h11v-1ZM0 17h11v1H0v-1Zm24 0H13v1h11v-1ZM0 13h6v1H0v-1Zm19 0h-6v1h6v-1ZM6 19v1H0v-1h6Zm13 1v-1h-6v1h6Z" clip-rule="evenodd"/><path fill="#999" fill-rule="evenodd" d="M9 13H7v1h2v-1Zm13 0h-2v1h2v-1ZM7 19h2v1H7v-1Zm15 0h-2v1h2v-1Z" clip-rule="evenodd"/></svg>