<svg xmlns="http://www.w3.org/2000/svg" width="24" height="24" fill="none"><path fill="#B32056" fill-rule="evenodd" d="M7 3.5H2v3h1.143l2.286-2L7 5.646V3.5Zm1 2.875V6.5a1 1 0 0 1-1 1H2a1 1 0 0 1-1-1v-3a1 1 0 0 1 1-1h5a1 1 0 0 1 1 1v2.875ZM10 2.5h13v1H10v-1Zm11 3H10v1h11v-1Zm-14 5H2v3h1.143l2.286-2L7 12.646V10.5Zm-6 3a1 1 0 0 0 1 1h5a1 1 0 0 0 1-1v-3a1 1 0 0 0-1-1H2a1 1 0 0 0-1 1v3Zm22-4H10v1h13v-1Zm-13 3h11v1H10v-1Zm-8 5h5v2.146L5.429 18.5l-2.286 2H2v-3Zm0 4a1 1 0 0 1-1-1v-3a1 1 0 0 1 1-1h5a1 1 0 0 1 1 1v3a1 1 0 0 1-1 1H2Zm8-5h13v1H10v-1Zm11 3H10v1h11v-1Z" clip-rule="evenodd"/></svg>