<svg xmlns="http://www.w3.org/2000/svg" width="24" height="24" fill="none"><path fill="#B32056" fill-rule="evenodd" d="M1 3a1 1 0 0 0-1 1v6a1 1 0 0 0 1 1h9a1 1 0 0 0 1-1V4a1 1 0 0 0-1-1H1Zm5 6H1v1h5V9ZM1 7h9v1H1V7Zm13-4a1 1 0 0 0-1 1v6a1 1 0 0 0 1 1h9a1 1 0 0 0 1-1V4a1 1 0 0 0-1-1h-9Zm5 6h-5v1h5V9Zm-5-2h9v1h-9V7ZM0 14a1 1 0 0 1 1-1h2a1 1 0 0 1 1 1v1a1 1 0 0 1-1 1H1a1 1 0 0 1-1-1v-1Zm14-1a1 1 0 0 0-1 1v1a1 1 0 0 0 1 1h2a1 1 0 0 0 1-1v-1a1 1 0 0 0-1-1h-2ZM0 19a1 1 0 0 1 1-1h2a1 1 0 0 1 1 1v1a1 1 0 0 1-1 1H1a1 1 0 0 1-1-1v-1Zm14-1a1 1 0 0 0-1 1v1a1 1 0 0 0 1 1h2a1 1 0 0 0 1-1v-1a1 1 0 0 0-1-1h-2Zm-9-5h6v1H5v-1Zm19 0h-6v1h6v-1ZM5 18h6v1H5v-1Zm19 0h-6v1h6v-1ZM5 15h4v1H5v-1Zm17 0h-4v1h4v-1ZM5 20h4v1H5v-1Zm17 0h-4v1h4v-1Z" clip-rule="evenodd"/></svg>