<svg xmlns="http://www.w3.org/2000/svg" width="24" height="24" fill="none"><path fill="#B32056" fill-rule="evenodd" d="M1 2h5v2.528L4.429 3 1.857 6H1V2Zm6 3.5V6a1 1 0 0 1-1 1H1a1 1 0 0 1-1-1V2a1 1 0 0 1 1-1h5a1 1 0 0 1 1 1v3.5ZM4.429 15 6 16.528V14H1v4h.857l2.572-3ZM0 18a1 1 0 0 0 1 1h5a1 1 0 0 0 1-1v-4a1 1 0 0 0-1-1H1a1 1 0 0 0-1 1v4Zm0 2h7v1H0v-1ZM7 8H0v1h7V8ZM0 22h5v1H0v-1Zm5-12H0v1h5v-1Zm9.5 6.528L12.929 15l-2.572 3H9.5v-4h5v2.528Zm0 2.472a1 1 0 0 0 1-1v-4a1 1 0 0 0-1-1h-5a1 1 0 0 0-1 1v4a1 1 0 0 0 1 1h5Zm0-14.472L12.929 3l-2.572 3H9.5V2h5v2.528ZM9.5 7a1 1 0 0 1-1-1V2a1 1 0 0 1 1-1h5a1 1 0 0 1 1 1v4a1 1 0 0 1-1 1h-5Zm-1 13h7v1h-7v-1Zm7-12h-7v1h7V8Zm-7 14h5v1h-5v-1Zm5-12h-5v1h5v-1Zm9.5 6.528L21.429 15l-2.572 3H18v-4h5v2.528ZM23 19a1 1 0 0 0 1-1v-4a1 1 0 0 0-1-1h-5a1 1 0 0 0-1 1v4a1 1 0 0 0 1 1h5Zm0-14.472L21.429 3l-2.572 3H18V2h5v2.528ZM18 7a1 1 0 0 1-1-1V2a1 1 0 0 1 1-1h5a1 1 0 0 1 1 1v4a1 1 0 0 1-1 1h-5Zm-1 13h7v1h-7v-1Zm7-12h-7v1h7V8Zm-7 14h5v1h-5v-1Zm5-12h-5v1h5v-1Z" clip-rule="evenodd"/></svg>