<svg xmlns="http://www.w3.org/2000/svg" width="24" height="24" fill="none"><path fill="#999" fill-rule="evenodd" d="M1.75 6.75h3.5v.5h-3.5v-.5Zm17 13h3.5v.5h-3.5v-.5Zm-13.5 0h-3.5v.5h3.5v-.5Zm13.5-11h3.5v.5h-3.5v-.5Zm-14 12h-3v.5h3v-.5Zm-3-13h3v.5h-3v-.5Zm20 13h-3v.5h3v-.5Zm-3-11h3v.5h-3v-.5Zm-5 6h-3.5v.5h3.5v-.5Zm-3.5 1h2.5v.5h-2.5v-.5Zm3 1h-3v.5h3v-.5Z" clip-rule="evenodd"/><path fill="#B32056" fill-rule="evenodd" d="M1 2h1.75v.5H1V2Zm0 4v3h5V6H1ZM0 2a1 1 0 0 1 1-1h5a1 1 0 0 1 1 1v7a1 1 0 0 1-1 1H1a1 1 0 0 1-1-1V2Zm18 13h1.75v.5H18V15Zm0 4v3h5v-3h-5Zm-1-4a1 1 0 0 1 1-1h5a1 1 0 0 1 1 1v7a1 1 0 0 1-1 1h-5a1 1 0 0 1-1-1v-7Zm2.75-13H18v.5h1.75V2ZM18 11V8h5v3h-5Zm0-10a1 1 0 0 0-1 1v9a1 1 0 0 0 1 1h5a1 1 0 0 0 1-1V2a1 1 0 0 0-1-1h-5ZM9.5 2h1.75v.5H9.5V2Zm0 13v4h5v-4h-5Zm-1-13a1 1 0 0 1 1-1h5a1 1 0 0 1 1 1v17a1 1 0 0 1-1 1h-5a1 1 0 0 1-1-1V2ZM2.75 13H1v.5h1.75V13ZM1 22v-3h5v3H1Zm0-10a1 1 0 0 0-1 1v9a1 1 0 0 0 1 1h5a1 1 0 0 0 1-1v-9a1 1 0 0 0-1-1H1Z" clip-rule="evenodd"/></svg>