<svg xmlns="http://www.w3.org/2000/svg" width="24" height="24" fill="none"><path fill="#B32056" fill-rule="evenodd" d="M9.5 1a1 1 0 0 0-1 1v17a1 1 0 0 0 1 1h5a1 1 0 0 0 1-1V2a1 1 0 0 0-1-1h-5Zm5 15.5h-5v.5h5v-.5Zm-5-1.5h5v.5h-5V15Zm4 3h-4v.5h4V18Zm-4-16h1.75v.5H9.5V2Zm8.5-.75a1 1 0 0 0-1 1v9a1 1 0 0 0 1 1h5a1 1 0 0 0 1-1v-9a1 1 0 0 0-1-1h-5Zm5 7.5h-5v.5h5v-.5Zm-5 1.5h4v.5h-4v-.5Zm1.75-8H18v.5h1.75v-.5ZM1 12a1 1 0 0 0-1 1v9a1 1 0 0 0 1 1h5a1 1 0 0 0 1-1v-9a1 1 0 0 0-1-1H1Zm5 7.5H1v.5h5v-.5ZM1 21h4v.5H1V21Zm1.75-8H1v.5h1.75V13ZM1 1a1 1 0 0 0-1 1v7a1 1 0 0 0 1 1h5a1 1 0 0 0 1-1V2a1 1 0 0 0-1-1H1Zm5 5.5H1V7h5v-.5ZM1 8h4v.5H1V8Zm1.75-6H1v.5h1.75V2ZM17 15a1 1 0 0 1 1-1h5a1 1 0 0 1 1 1v7a1 1 0 0 1-1 1h-5a1 1 0 0 1-1-1v-7Zm1 4.5h5v.5h-5v-.5Zm4 1.5h-4v.5h4V21Zm-4-6h1.75v.5H18V15Z" clip-rule="evenodd"/></svg>