<svg xmlns="http://www.w3.org/2000/svg" width="24" height="24" fill="none"><path fill="#999" fill-rule="evenodd" d="M5.25 7.5h-3.5V8h3.5v-.5Zm0 12h-3.5v.5h3.5v-.5Zm5-12h3.5V8h-3.5v-.5Zm3.5 12h-3.5v.5h3.5v-.5Zm5-12h3.5V8h-3.5v-.5Zm3.5 12h-3.5v.5h3.5v-.5Zm-11.5-11h2.5V9h-2.5v-.5Zm2.5 12h-2.5v.5h2.5v-.5Zm-11-12h2.5V9h-2.5v-.5Zm2.5 12h-2.5v.5h2.5v-.5Zm14.5-12h2.5V9h-2.5v-.5Zm2.5 12h-2.5v.5h2.5v-.5Z" clip-rule="evenodd"/><path fill="#B32056" fill-rule="evenodd" d="M6 6.5H4.375V6h-1.75v.5H1V10h5V6.5ZM0 2a1 1 0 0 1 1-1h5a1 1 0 0 1 1 1v8a1 1 0 0 1-1 1H1a1 1 0 0 1-1-1V2Zm12.875 4.5H14.5V10h-5V6.5h1.625V6h1.75v.5ZM9.5 1a1 1 0 0 0-1 1v8a1 1 0 0 0 1 1h5a1 1 0 0 0 1-1V2a1 1 0 0 0-1-1h-5Zm3.375 17.5H14.5V22h-5v-3.5h1.625V18h1.75v.5ZM9.5 13a1 1 0 0 0-1 1v8a1 1 0 0 0 1 1h5a1 1 0 0 0 1-1v-8a1 1 0 0 0-1-1h-5Zm-5.125 5.5H6V22H1v-3.5h1.625V18h1.75v.5ZM1 13a1 1 0 0 0-1 1v8a1 1 0 0 0 1 1h5a1 1 0 0 0 1-1v-8a1 1 0 0 0-1-1H1Zm22-6.5h-1.625V6h-1.75v.5H18V10h5V6.5ZM17 2a1 1 0 0 1 1-1h5a1 1 0 0 1 1 1v8a1 1 0 0 1-1 1h-5a1 1 0 0 1-1-1V2Zm4.375 16.5H23V22h-5v-3.5h1.625V18h1.75v.5ZM18 13a1 1 0 0 0-1 1v8a1 1 0 0 0 1 1h5a1 1 0 0 0 1-1v-8a1 1 0 0 0-1-1h-5Z" clip-rule="evenodd"/></svg>