<svg xmlns="http://www.w3.org/2000/svg" width="24" height="24" fill="none"><path fill="#B32056" fill-rule="evenodd" d="M21 2H3v6h3.242l4.789-3.857 3.2 2L17.8 3 21 5V2ZM3 9h18a1 1 0 0 0 1-1V2a1 1 0 0 0-1-1H3a1 1 0 0 0-1 1v6a1 1 0 0 0 1 1Zm2-4a1 1 0 1 0 0-2 1 1 0 0 0 0 2Zm-3 5h20v1H2v-1Zm17 2H2v1h17v-1ZM2 15h1v1H2v-1Zm1 5H2v1h1v-1Zm10-5h1v1h-1v-1Zm1 5h-1v1h1v-1ZM4 15h7v1H4v-1Zm7 5H4v1h7v-1Zm4-5h7v1h-7v-1Zm7 5h-7v1h7v-1ZM4 17h6v1H4v-1Zm6 5H4v1h6v-1Zm5-5h6v1h-6v-1Zm6 5h-6v1h6v-1Z" clip-rule="evenodd"/></svg>