<svg xmlns="http://www.w3.org/2000/svg" width="24" height="24" fill="none"><path fill="#B32056" fill-rule="evenodd" d="M1 3a1 1 0 0 0-1 1v1a1 1 0 0 0 1 1h2a1 1 0 0 0 1-1V4a1 1 0 0 0-1-1H1Zm13 0a1 1 0 0 0-1 1v1a1 1 0 0 0 1 1h2a1 1 0 0 0 1-1V4a1 1 0 0 0-1-1h-2ZM5 3h6v1H5V3Zm19 0h-6v1h6V3ZM5 5h4v1H5V5ZM1 18a1 1 0 0 0-1 1v1a1 1 0 0 0 1 1h2a1 1 0 0 0 1-1v-1a1 1 0 0 0-1-1H1Zm12 1a1 1 0 0 1 1-1h2a1 1 0 0 1 1 1v1a1 1 0 0 1-1 1h-2a1 1 0 0 1-1-1v-1Zm-2-1H5v1h6v-1Zm7 0h6v1h-6v-1Zm-9 2H5v1h4v-1Zm9 0h4v1h-4v-1ZM1 10.5a1 1 0 0 0-1 1v1a1 1 0 0 0 1 1h2a1 1 0 0 0 1-1v-1a1 1 0 0 0-1-1H1Zm12 1a1 1 0 0 1 1-1h2a1 1 0 0 1 1 1v1a1 1 0 0 1-1 1h-2a1 1 0 0 1-1-1v-1Zm-2-1H5v1h6v-1Zm7 0h6v1h-6v-1Zm-9 2H5v1h4v-1Zm9 0h4v1h-4v-1ZM22 5h-4v1h4V5Z" clip-rule="evenodd"/></svg>