<svg xmlns="http://www.w3.org/2000/svg" width="24" height="24" fill="none"><path fill="#B32056" fill-rule="evenodd" d="M20 0H4v1h16V0ZM4 13v1h16v-1H4Zm2-3v1H4v-1h2ZM4 23v1h2v-1H4Zm5-13h3v1H9v-1Zm3 13H9v1h3v-1Zm1-13h3v1h-3v-1Zm3 13h-3v1h3v-1Zm0-20H5v5h1.117l3.406-3.048 2.4 1.667L14.6 4l1.4.972V3Zm1 2.667V3a1 1 0 0 0-1-1H5a1 1 0 0 0-1 1v5a1 1 0 0 0 1 1h11a1 1 0 0 0 1-1V5.667ZM5 16h11v1.972L14.6 17l-2.677 2.619-2.4-1.667L6.117 21H5v-5Zm12 2.667V16a1 1 0 0 0-1-1H5a1 1 0 0 0-1 1v5a1 1 0 0 0 1 1h11a1 1 0 0 0 1-1v-2.333ZM7.5 4.75a.75.75 0 1 1-1.5 0 .75.75 0 0 1 1.5 0ZM6.75 18.5a.75.75 0 1 0 0-1.5.75.75 0 0 0 0 1.5Z" clip-rule="evenodd"/></svg>