<svg xmlns="http://www.w3.org/2000/svg" width="24" height="24" fill="none"><path fill="#E1BC29" d="M0 18.5a.5.5 0 1 1 1 0 .5.5 0 0 1-1 0ZM13 18.5a.5.5 0 1 1 1 0 .5.5 0 0 1-1 0ZM1.75 18.5a.5.5 0 1 1 1 0 .5.5 0 0 1-1 0ZM14.75 18.5a.5.5 0 1 1 1 0 .5.5 0 0 1-1 0ZM3.5 18.5a.5.5 0 1 1 1 0 .5.5 0 0 1-1 0ZM16.5 18.5a.5.5 0 1 1 1 0 .5.5 0 0 1-1 0Z"/><path fill="#B32056" fill-rule="evenodd" d="M10 5H1v5h3V9H2.164l2.605-2.238 2 1.333L9 6l1 .667V5ZM1 4a1 1 0 0 0-1 1v5a1 1 0 0 0 1 1h9a1 1 0 0 0 1-1V5a1 1 0 0 0-1-1H1Zm10 9H0v1h11v-1Zm-2 2H0v1h9v-1ZM23 5h-9v5h3V9h-1.836l2.605-2.238 2 1.333L22 6l1 .667V5Zm-9-1a1 1 0 0 0-1 1v5a1 1 0 0 0 1 1h9a1 1 0 0 0 1-1V5a1 1 0 0 0-1-1h-9Zm10 9H13v1h11v-1Zm-2 2h-9v1h9v-1Z" clip-rule="evenodd"/></svg>