<svg xmlns="http://www.w3.org/2000/svg" width="24" height="24" fill="none"><path fill="#B32056" fill-rule="evenodd" d="M1 2h9v2.833L9 4 6.77 6.619l-2-1.667L1.93 8H1V2Zm10 3.667V2a1 1 0 0 0-1-1H1a1 1 0 0 0-1 1v6a1 1 0 0 0 1 1h9a1 1 0 0 0 1-1V5.667ZM14 2h9v2.833L22 4l-2.23 2.619-2-1.667L14.93 8H14V2Zm0 7a1 1 0 0 1-1-1V2a1 1 0 0 1 1-1h9a1 1 0 0 1 1 1v6a1 1 0 0 1-1 1h-9ZM4 4a1 1 0 1 1-2 0 1 1 0 0 1 2 0Zm12 1a1 1 0 1 0 0-2 1 1 0 0 0 0 2ZM0 16a1 1 0 0 1 1-1h2a1 1 0 0 1 1 1v1a1 1 0 0 1-1 1H1a1 1 0 0 1-1-1v-1Zm14-1a1 1 0 0 0-1 1v1a1 1 0 0 0 1 1h2a1 1 0 0 0 1-1v-1a1 1 0 0 0-1-1h-2ZM0 21a1 1 0 0 1 1-1h2a1 1 0 0 1 1 1v1a1 1 0 0 1-1 1H1a1 1 0 0 1-1-1v-1Zm14-1a1 1 0 0 0-1 1v1a1 1 0 0 0 1 1h2a1 1 0 0 0 1-1v-1a1 1 0 0 0-1-1h-2Zm-9-5h6v1H5v-1Zm19 0h-6v1h6v-1ZM5 20h6v1H5v-1Zm19 0h-6v1h6v-1ZM5 17h4v1H5v-1Zm17 0h-4v1h4v-1ZM5 22h4v1H5v-1Zm17 0h-4v1h4v-1ZM0 10h11v1H0v-1Zm9 2H0v1h9v-1Zm4-2h11v1H13v-1Zm9 2h-9v1h9v-1Z" clip-rule="evenodd"/></svg>