<svg xmlns="http://www.w3.org/2000/svg" width="24" height="24" fill="none"><path fill="#B32056" fill-rule="evenodd" d="M1 2h13v1H1V2Zm21 1h-5v3h1.143l2.286-2L22 5.146V3Zm1 2.875V6a1 1 0 0 1-1 1h-5a1 1 0 0 1-1-1V3a1 1 0 0 1 1-1h5a1 1 0 0 1 1 1v2.875ZM12 5H1v1h11V5Zm10 5h-5v3h1.143l2.286-2L22 12.146V10Zm-6 3a1 1 0 0 0 1 1h5a1 1 0 0 0 1-1v-3a1 1 0 0 0-1-1h-5a1 1 0 0 0-1 1v3Zm-2-4H1v1h13V9ZM1 12h11v1H1v-1Zm16 5h5v2.146L20.429 18l-2.286 2H17v-3Zm0 4a1 1 0 0 1-1-1v-3a1 1 0 0 1 1-1h5a1 1 0 0 1 1 1v3a1 1 0 0 1-1 1h-5ZM1 16h13v1H1v-1Zm11 3H1v1h11v-1Z" clip-rule="evenodd"/></svg>