<svg xmlns="http://www.w3.org/2000/svg" width="24" height="24" fill="none"><path fill="#B32056" fill-rule="evenodd" d="M1 3h9v1.667L9 4 6.77 6.095l-2-1.333L2.163 7H4v1H1V3ZM0 3a1 1 0 0 1 1-1h9a1 1 0 0 1 1 1v5a1 1 0 0 1-1 1H1a1 1 0 0 1-1-1V3Zm11 7H0v1h11v-1Zm0 11H0v1h11v-1Zm2-11h11v1H13v-1Zm11 11H13v1h11v-1Zm-14-7H1v5h3v-1H2.164l2.605-2.238 2 1.333L9 15l1 .667V14Zm-9-1a1 1 0 0 0-1 1v5a1 1 0 0 0 1 1h9a1 1 0 0 0 1-1v-5a1 1 0 0 0-1-1H1ZM14 3h9v1.667L22 4l-2.23 2.095-2-1.333L15.163 7H17v1h-3V3Zm-1 0a1 1 0 0 1 1-1h9a1 1 0 0 1 1 1v5a1 1 0 0 1-1 1h-9a1 1 0 0 1-1-1V3Zm10 11h-9v5h3v-1h-1.836l2.605-2.238 2 1.333L22 15l1 .667V14Zm-9-1a1 1 0 0 0-1 1v5a1 1 0 0 0 1 1h9a1 1 0 0 0 1-1v-5a1 1 0 0 0-1-1h-9Z" clip-rule="evenodd"/></svg>