<svg xmlns="http://www.w3.org/2000/svg" width="24" height="24" fill="none"><path fill="#B32056" fill-rule="evenodd" d="M1 4.25h9v2.833L9 6.25 6.77 8.869l-2-1.667L1.93 10.25H1v-6Zm10 0v6a1 1 0 0 1-1 1H1a1 1 0 0 1-1-1v-6a1 1 0 0 1 1-1h9a1 1 0 0 1 1 1Zm3 0h9v2.833l-1-.833-2.23 2.619-2-1.667-2.839 3.048H14v-6Zm0 7a1 1 0 0 1-1-1v-6a1 1 0 0 1 1-1h9a1 1 0 0 1 1 1v6a1 1 0 0 1-1 1h-9Zm-10-5a1 1 0 1 1-2 0 1 1 0 0 1 2 0Zm12 1a1 1 0 1 0 0-2 1 1 0 0 0 0 2Zm-16 7.5h11v1H9v1H0v-2Zm24 0H13v2h9v-1h2v-1Z" clip-rule="evenodd"/><path fill="#999" fill-rule="evenodd" d="M0 12.75h3v1H0v-1Zm11 5H0v1h11v-1Zm0 2H0v1h11v-1Zm2-2h11v1H13v-1Zm11 2H13v1h11v-1Zm-8-7h-3v1h3v-1Z" clip-rule="evenodd"/></svg>