<svg xmlns="http://www.w3.org/2000/svg" width="24" height="24" fill="none"><path fill="#999" fill-rule="evenodd" d="M1.75 6.75h3.5v.5h-3.5v-.5Zm17 13h3.5v.5h-3.5v-.5Zm-13.5 0h-3.5v.5h3.5v-.5Zm13.5-11h3.5v.5h-3.5v-.5Zm-14-1h-3v.5h3v-.5Zm14 13h3v.5h-3v-.5Zm-14 0h-3v.5h3v-.5Zm14-11h3v.5h-3v-.5Zm-5 6h-3.5v.5h3.5v-.5Zm-3.5 1h2.5v.5h-2.5v-.5Zm3 1h-3v.5h3v-.5Z" clip-rule="evenodd"/><path fill="#B32056" fill-rule="evenodd" d="M6 2H1v2h5V2ZM1 9V6h5v3H1Zm0-8a1 1 0 0 0-1 1v7a1 1 0 0 0 1 1h5a1 1 0 0 0 1-1V2a1 1 0 0 0-1-1H1Zm3.75 1.75h-3v.5h3v-.5ZM23 15h-5v2h5v-2Zm-5 7v-3h5v3h-5Zm0-8a1 1 0 0 0-1 1v7a1 1 0 0 0 1 1h5a1 1 0 0 0 1-1v-7a1 1 0 0 0-1-1h-5Zm3.75 1.75h-3v.5h3v-.5ZM9.5 2h5v3h-5V2Zm0 13h5v4h-5v-4Zm-1-13a1 1 0 0 1 1-1h5a1 1 0 0 1 1 1v17a1 1 0 0 1-1 1h-5a1 1 0 0 1-1-1V2Zm1.75.75h3.5v.5h-3.5v-.5Zm0 1h2.5v.5h-2.5v-.5ZM1 13h5v2H1v-2Zm0 6v3h5v-3H1Zm-1-6a1 1 0 0 1 1-1h5a1 1 0 0 1 1 1v9a1 1 0 0 1-1 1H1a1 1 0 0 1-1-1v-9Zm1.75.75h3v.5h-3v-.5ZM23 2h-5v2h5V2Zm-5 9V8h5v3h-5Zm0-10a1 1 0 0 0-1 1v9a1 1 0 0 0 1 1h5a1 1 0 0 0 1-1V2a1 1 0 0 0-1-1h-5Zm3.75 1.75h-3v.5h3v-.5Z" clip-rule="evenodd"/></svg>