<svg xmlns="http://www.w3.org/2000/svg" width="24" height="24" fill="none"><path fill="#999" fill-rule="evenodd" d="M5.25 7.5h-3.5V8h3.5v-.5Zm0 12h-3.5v.5h3.5v-.5Zm5 0h3.5v.5h-3.5v-.5Zm12-12h-3.5V8h3.5v-.5Zm-20.5 1h3V9h-3v-.5Zm3 12h-3v.5h3v-.5Zm5.5 0h3v.5h-3v-.5Zm11.5-12h-3V9h3v-.5Z" clip-rule="evenodd"/><path fill="#B32056" fill-rule="evenodd" d="M1 2h1.75v.5H1V2Zm0 4.5V10h5V6.5H1ZM0 2a1 1 0 0 1 1-1h5a1 1 0 0 1 1 1v8a1 1 0 0 1-1 1H1a1 1 0 0 1-1-1V2Zm8.5 0a1 1 0 0 1 1-1h5a1 1 0 0 1 1 1v8a1 1 0 0 1-1 1h-5a1 1 0 0 1-1-1V2Zm1 5.5h5V8h-5v-.5Zm3 1.5h-3v.5h3V9Zm-3-7h1.75v.5H9.5V2ZM17 14a1 1 0 0 1 1-1h5a1 1 0 0 1 1 1v8a1 1 0 0 1-1 1h-5a1 1 0 0 1-1-1v-8Zm1 5.5h5v.5h-5v-.5Zm3 1.5h-3v.5h3V21Zm-3-7h1.75v.5H18V14ZM2.75 14H1v.5h1.75V14ZM1 22v-3.5h5V22H1Zm0-9a1 1 0 0 0-1 1v8a1 1 0 0 0 1 1h5a1 1 0 0 0 1-1v-8a1 1 0 0 0-1-1H1Zm8.5 1h1.75v.5H9.5V14Zm0 4.5V22h5v-3.5h-5Zm-1-4.5a1 1 0 0 1 1-1h5a1 1 0 0 1 1 1v8a1 1 0 0 1-1 1h-5a1 1 0 0 1-1-1v-8ZM19.75 2H18v.5h1.75V2ZM18 10V6.5h5V10h-5Zm0-9a1 1 0 0 0-1 1v8a1 1 0 0 0 1 1h5a1 1 0 0 0 1-1V2a1 1 0 0 0-1-1h-5Z" clip-rule="evenodd"/></svg>