<svg xmlns="http://www.w3.org/2000/svg" width="24" height="24" fill="none"><path fill="#B32056" fill-rule="evenodd" d="M7.488 4.497H1V7.5h6.488V4.497Zm0-1H1a1 1 0 0 0-1 1V7.5a1 1 0 0 0 1 1h6.488v11.003a1 1 0 0 0 1 1H18a1 1 0 0 0 1-1V8.5h4a1 1 0 0 0 1-1V4.497a1 1 0 0 0-1-1H7.488Zm8.019 1H8.488v3h7.019v-3Zm1 0H23V7.5h-6.493V4.497ZM18 8.5H8.488v11.003H18V8.5ZM2.248 5.497h3.981v1H2.248v-1Zm11.74 0h-3.981v1h3.981v-1Zm3.775-.006h3.981v1h-3.981v-1Zm-1.256 5.01H9.982v1h6.525v-1Zm-6.525 3h6.525v1H9.982v-1Zm6.525 3H9.982v1h6.525v-1Z" clip-rule="evenodd"/></svg>