<svg xmlns="http://www.w3.org/2000/svg" width="24" height="24" fill="none"><path fill="#B32056" d="M10.755 14.904c-.473 2.479-1.05 4.855-2.76 6.096-.528-3.746.774-6.558 1.38-9.544-1.033-1.737.124-5.231 2.3-4.37 2.677 1.059-2.32 6.455 1.034 7.13 3.502.703 4.931-6.075 2.76-8.279-3.137-3.184-9.132-.075-8.394 4.484.18 1.114 1.33 1.451.46 2.99-2.008-.445-2.607-2.03-2.53-4.14C5.13 5.815 8.11 3.396 11.1 3.06c3.78-.424 7.33 1.388 7.82 4.944.552 4.015-1.706 8.364-5.75 8.05-1.096-.085-1.555-.629-2.414-1.15Z"/></svg>