<svg xmlns="http://www.w3.org/2000/svg" width="24" height="24" fill="none"><path fill="#B32056" fill-rule="evenodd" d="M23 8h-5v4h.857l2.572-3L23 10.528V8Zm1 4V8a1 1 0 0 0-1-1h-5a1 1 0 0 0-1 1v4a1 1 0 0 0 1 1h5a1 1 0 0 0 1-1ZM0 14h7v1H0v-1Zm0 2h5v1H0v-1Zm15.5-2h-7v1h7v-1Zm-7 2h5v1h-5v-1ZM24 14h-7v1h7v-1Zm-7 2h5v1h-5v-1ZM9.5 8h5v2.528L12.929 9l-2.572 3H9.5V8Zm6 3.5v.5a1 1 0 0 1-1 1h-5a1 1 0 0 1-1-1V8a1 1 0 0 1 1-1h5a1 1 0 0 1 1 1v3.5ZM6 8H1v4h.857L4.43 9 6 10.528V8Zm1 4V8a1 1 0 0 0-1-1H1a1 1 0 0 0-1 1v4a1 1 0 0 0 1 1h5a1 1 0 0 0 1-1Z" clip-rule="evenodd"/></svg>