<svg xmlns="http://www.w3.org/2000/svg" width="24" height="24" fill="none"><path fill="#B32056" fill-rule="evenodd" d="M.5 6H0v7h.5a1 1 0 0 0 1-1V7a1 1 0 0 0-1-1Zm23 0a1 1 0 0 0-1 1v5a1 1 0 0 0 1 1h.5V6h-.5Zm-21 8h8v1h-8v-1Zm18 0h-8v1h8v-1Zm-18 2h6v1h-6v-1Zm16 0h-6v1h6v-1Zm-15-9h7v2.262l-.8-.593-2.008 2.426-1.48-1.333L4.384 12H3.5V7Zm.065 6H3.5a1 1 0 0 1-1-1V7a1 1 0 0 1 1-1h7a1 1 0 0 1 1 1v5a1 1 0 0 1-1 1H3.565ZM20.5 7h-7v5h.883l1.83-2.238 1.48 1.333L19.7 8.67l.8.593V7Zm-7 6h7a1 1 0 0 0 1-1V7a1 1 0 0 0-1-1h-7a1 1 0 0 0-1 1v5a1 1 0 0 0 1 1Z" clip-rule="evenodd"/></svg>