<svg width="24" height="24" viewBox="0 0 24 24" fill="none" xmlns="http://www.w3.org/2000/svg">
<path fill-rule="evenodd" clip-rule="evenodd" d="M24 12V8C24 7.44772 23.5523 7 23 7H18C17.4477 7 17 7.44772 17 8V12C17 12.5523 17.4477 13 18 13H23C23.5523 13 24 12.5523 24 12ZM23 8H18V12H18.8571L21.4286 9L23 10.5278V8Z" fill="url(#paint0_linear_19787_18782)"/>
<path d="M0 14H7V15H0V14Z" fill="url(#paint1_linear_19787_18782)"/>
<path d="M0 16H5V17H0V16Z" fill="url(#paint2_linear_19787_18782)"/>
<path d="M15.5 14H8.5V15H15.5V14Z" fill="url(#paint3_linear_19787_18782)"/>
<path d="M8.5 16H13.5V17H8.5V16Z" fill="url(#paint4_linear_19787_18782)"/>
<path d="M24 14H17V15H24V14Z" fill="url(#paint5_linear_19787_18782)"/>
<path d="M17 16H22V17H17V16Z" fill="url(#paint6_linear_19787_18782)"/>
<path fill-rule="evenodd" clip-rule="evenodd" d="M15.5 12C15.5 12.5523 15.0523 13 14.5 13H9.5C8.94771 13 8.5 12.5523 8.5 12V8C8.5 7.44772 8.94772 7 9.5 7H14.5C15.0523 7 15.5 7.44772 15.5 8V12ZM9.5 8H14.5V10.5278L12.9286 9L10.3571 12H9.5V8Z" fill="url(#paint7_linear_19787_18782)"/>
<path fill-rule="evenodd" clip-rule="evenodd" d="M7 12V8C7 7.44772 6.55228 7 6 7H1C0.447715 7 0 7.44772 0 8V12C0 12.5523 0.447715 13 1 13H6C6.55228 13 7 12.5523 7 12ZM6 8H1L1 12H1.85714L4.42857 9L6 10.5278V8Z" fill="url(#paint8_linear_19787_18782)"/>
<defs>
<linearGradient id="paint0_linear_19787_18782" x1="12" y1="7" x2="12" y2="17" gradientUnits="userSpaceOnUse">
<stop stop-color="#DB320D"/>
<stop offset="1" stop-color="#8B0D9F"/>
</linearGradient>
<linearGradient id="paint1_linear_19787_18782" x1="12" y1="7" x2="12" y2="17" gradientUnits="userSpaceOnUse">
<stop stop-color="#DB320D"/>
<stop offset="1" stop-color="#8B0D9F"/>
</linearGradient>
<linearGradient id="paint2_linear_19787_18782" x1="12" y1="7" x2="12" y2="17" gradientUnits="userSpaceOnUse">
<stop stop-color="#DB320D"/>
<stop offset="1" stop-color="#8B0D9F"/>
</linearGradient>
<linearGradient id="paint3_linear_19787_18782" x1="12" y1="7" x2="12" y2="17" gradientUnits="userSpaceOnUse">
<stop stop-color="#DB320D"/>
<stop offset="1" stop-color="#8B0D9F"/>
</linearGradient>
<linearGradient id="paint4_linear_19787_18782" x1="12" y1="7" x2="12" y2="17" gradientUnits="userSpaceOnUse">
<stop stop-color="#DB320D"/>
<stop offset="1" stop-color="#8B0D9F"/>
</linearGradient>
<linearGradient id="paint5_linear_19787_18782" x1="12" y1="7" x2="12" y2="17" gradientUnits="userSpaceOnUse">
<stop stop-color="#DB320D"/>
<stop offset="1" stop-color="#8B0D9F"/>
</linearGradient>
<linearGradient id="paint6_linear_19787_18782" x1="12" y1="7" x2="12" y2="17" gradientUnits="userSpaceOnUse">
<stop stop-color="#DB320D"/>
<stop offset="1" stop-color="#8B0D9F"/>
</linearGradient>
<linearGradient id="paint7_linear_19787_18782" x1="12" y1="7" x2="12" y2="17" gradientUnits="userSpaceOnUse">
<stop stop-color="#DB320D"/>
<stop offset="1" stop-color="#8B0D9F"/>
</linearGradient>
<linearGradient id="paint8_linear_19787_18782" x1="12" y1="7" x2="12" y2="17" gradientUnits="userSpaceOnUse">
<stop stop-color="#DB320D"/>
<stop offset="1" stop-color="#8B0D9F"/>
</linearGradient>
</defs>
</svg>
