<svg xmlns="http://www.w3.org/2000/svg" width="24" height="24" fill="none"><g clip-path="url(#a)"><path fill="#999" d="M10 8h1v1h-1zM10 21h1v1h-1zM23 8h1v1h-1zM23 21h1v1h-1z"/><path fill="#B32056" fill-rule="evenodd" d="M1 1h9v2.552L8.525 2 5.993 5.007 4.026 3.729 1.925 6H1V1Zm10 0v5a.997.997 0 0 1-1 1H1a1 1 0 0 1-1-1V1a1 1 0 0 1 1-1h9a1 1 0 0 1 1 1ZM1 14h9v2.552L8.525 15l-2.532 3.007-1.967-1.278L1.925 19H1v-5Zm9.479 5.878A.995.995 0 0 1 10 20H1a1 1 0 0 1-1-1v-5a1 1 0 0 1 1-1h9a1 1 0 0 1 1 1v5a1 1 0 0 1-.521.878ZM23 1h-9v5h.925l2.1-2.27 1.968 1.277L21.525 2 23 3.552V1Zm0 6a.999.999 0 0 0 1-1V1a1 1 0 0 0-1-1h-9a1 1 0 0 0-1 1v5a1 1 0 0 0 1 1h9Zm-9 7h9v2.552L21.525 15l-2.532 3.007-1.967-1.278L14.925 19H14v-5Zm9.563 5.827A.996.996 0 0 1 23 20h-9a1 1 0 0 1-1-1v-5a1 1 0 0 1 1-1h9a1 1 0 0 1 1 1v5a1 1 0 0 1-.437.827ZM0 8h8v1H0V8Zm8 13H0v1h8v-1Zm5-13h8v1h-8V8Zm8 13h-8v1h8v-1ZM0 10h11v1H0v-1Zm11 13H0v1h11v-1Zm2-13h11v1H13v-1Zm11 13H13v1h11v-1ZM3.5 2.315a.75.75 0 1 1-1.5 0 .75.75 0 0 1 1.5 0Zm-.75 13.75a.75.75 0 1 0 0-1.5.75.75 0 0 0 0 1.5ZM16.5 2.315a.75.75 0 1 1-1.5 0 .75.75 0 0 1 1.5 0Zm-.75 13.75a.75.75 0 1 0 0-1.5.75.75 0 0 0 0 1.5Z" clip-rule="evenodd"/></g><defs><clipPath id="a"><path fill="#fff" d="M0 0h24v24H0z"/></clipPath></defs></svg>