<svg xmlns="http://www.w3.org/2000/svg" width="24" height="24" fill="none"><path fill="#B32056" fill-rule="evenodd" d="M1 5a1 1 0 0 0-1 1v4a1 1 0 0 0 1 1h3a1 1 0 0 0 1-1V6a1 1 0 0 0-1-1H1Zm0 8a1 1 0 0 0-1 1v4a1 1 0 0 0 1 1h3a1 1 0 0 0 1-1v-4a1 1 0 0 0-1-1H1Zm12-7a1 1 0 0 1 1-1h3a1 1 0 0 1 1 1v4a1 1 0 0 1-1 1h-3a1 1 0 0 1-1-1V6Zm1 7a1 1 0 0 0-1 1v4a1 1 0 0 0 1 1h3a1 1 0 0 0 1-1v-4a1 1 0 0 0-1-1h-3ZM6 5h5v1H6V5Zm5 8H6v1h5v-1Zm8-8h5v1h-5V5Zm5 8h-5v1h5v-1ZM6 7h4v1H6V7Zm4 8H6v1h4v-1Zm9-8h4v1h-4V7Zm4 8h-4v1h4v-1Z" clip-rule="evenodd"/><path fill="#999" fill-rule="evenodd" d="M8 9H6v1h2V9Zm0 8H6v1h2v-1Zm11-8h2v1h-2V9Zm2 8h-2v1h2v-1Z" clip-rule="evenodd"/></svg>