<svg xmlns="http://www.w3.org/2000/svg" width="24" height="24" fill="none"><path fill="#B32056" fill-rule="evenodd" d="M1 3a1 1 0 0 0-1 1v6a1 1 0 0 0 1 1h9a1 1 0 0 0 1-1V4a1 1 0 0 0-1-1H1Zm5 6H1v1h5V9ZM1 7h9v1H1V7Zm0 6a1 1 0 0 0-1 1v6a1 1 0 0 0 1 1h9a1 1 0 0 0 1-1v-6a1 1 0 0 0-1-1H1Zm5 6H1v1h5v-1Zm-5-2h9v1H1v-1Zm12-3a1 1 0 0 1 1-1h9a1 1 0 0 1 1 1v6a1 1 0 0 1-1 1h-9a1 1 0 0 1-1-1v-6Zm1 5h5v1h-5v-1Zm9-2h-9v1h9v-1ZM14 3a1 1 0 0 0-1 1v6a1 1 0 0 0 1 1h9a1 1 0 0 0 1-1V4a1 1 0 0 0-1-1h-9Zm5 6h-5v1h5V9Zm-5-2h9v1h-9V7Z" clip-rule="evenodd"/></svg>