<svg xmlns="http://www.w3.org/2000/svg" width="24" height="24" fill="none"><g clip-path="url(#a)"><path fill="#999" d="M23 .5h1v1h-1zM23 9.5h1v1h-1zM23 18.5h1v1h-1z"/><path fill="#B32056" fill-rule="evenodd" d="M6 3a3 3 0 1 1-6 0 3 3 0 0 1 6 0ZM2.3 1.75 4.3 3l-2 1.25v-2.5ZM20 .5H8v1h12v-1Zm-6 4H8v1h6v-1Zm-6-2h14v1H8v-1Zm12 7v1H8v-1h12Zm-12 4h6v1H8v-1Zm14-2H8v1h14v-1ZM6 12a3 3 0 1 1-6 0 3 3 0 0 1 6 0Zm-3.7-1.25 2 1.25-2 1.25v-2.5ZM20 18.5v1H8v-1h12Zm-12 4h6v1H8v-1Zm14-2H8v1h14v-1ZM6 21a3 3 0 1 1-6 0 3 3 0 0 1 6 0Zm-3.7-1.25 2 1.25-2 1.25v-2.5Z" clip-rule="evenodd"/></g><defs><clipPath id="a"><path fill="#fff" d="M0 0h24v24H0z"/></clipPath></defs></svg>