<svg xmlns="http://www.w3.org/2000/svg" width="24" height="24" fill="none"><g fill-rule="evenodd" clip-path="url(#a)" clip-rule="evenodd"><path fill="#999" d="M8 5h6v1H8V5Zm0 17h6v1H8v-1Zm6-8.5H8v1h6v-1Z"/><path fill="#B32056" d="M5.833 1.167H1.167v4.666h4.666V1.167ZM1.167 0C.522 0 0 .522 0 1.167v4.666C0 6.478.522 7 1.167 7h4.666C6.478 7 7 6.478 7 5.833V1.167C7 .522 6.478 0 5.833 0H1.167ZM22 1H8v1h14V1Zm2 2H8v1h16V3ZM8 18h14v1H8v-1Zm16 2H8v1h16v-1ZM1.167 18.167h4.666v4.666H1.167v-4.666Zm-1.167 0C0 17.522.522 17 1.167 17h4.666C6.478 17 7 17.522 7 18.167v4.666C7 23.478 6.478 24 5.833 24H1.167A1.167 1.167 0 0 1 0 22.833v-4.666ZM2.5 4.75v-2.5l2 1.25-2 1.25ZM22 9.5H8v1h14v-1Zm-14 2h16v1H8v-1ZM1.167 9.667h4.666v4.666H1.167V9.667ZM0 9.667C0 9.022.522 8.5 1.167 8.5h4.666C6.478 8.5 7 9.022 7 9.667v4.666c0 .645-.522 1.167-1.167 1.167H1.167A1.167 1.167 0 0 1 0 14.333V9.667Zm2.5 3.583v-2.5l2 1.25-2 1.25Zm2 7.25-2-1.25v2.5l2-1.25Z"/></g><defs><clipPath id="a"><path fill="#fff" d="M0 0h24v24H0z"/></clipPath></defs></svg>