<svg xmlns="http://www.w3.org/2000/svg" width="24" height="24" fill="none"><path fill="#B32056" fill-rule="evenodd" d="M0 2a1 1 0 0 1 1-1h9a1 1 0 0 1 1 1v8a1 1 0 0 1-1 1H1a1 1 0 0 1-1-1V2Zm9.5 2.25h-8v1.5h8v-1.5ZM8 6.75H3v1h5v-1ZM0 14a1 1 0 0 1 1-1h9a1 1 0 0 1 1 1v8a1 1 0 0 1-1 1H1a1 1 0 0 1-1-1v-8Zm9.5 2.25h-8v1.5h8v-1.5ZM8 18.75H3v1h5v-1ZM14 1a1 1 0 0 0-1 1v8a1 1 0 0 0 1 1h9a1 1 0 0 0 1-1V2a1 1 0 0 0-1-1h-9Zm.5 3.25h8v1.5h-8v-1.5Zm1.5 2.5h5v1h-5v-1ZM13 14a1 1 0 0 1 1-1h9a1 1 0 0 1 1 1v8a1 1 0 0 1-1 1h-9a1 1 0 0 1-1-1v-8Zm9.5 2.25h-8v1.5h8v-1.5Zm-1.5 2.5h-5v1h5v-1Z" clip-rule="evenodd"/></svg>