<svg xmlns="http://www.w3.org/2000/svg" width="24" height="24" fill="none"><g fill-rule="evenodd" clip-path="url(#a)" clip-rule="evenodd"><path fill="#999" d="M13 .5h-2v1h2v-1Zm2 10v-1h-4v1h4Zm-4 3h2v1h-2v-1Zm4 10v-1h-4v1h4Z"/><path fill="#B32056" d="M9 1H1v7.734l2.005-2.582 1.797 1.333L7.203 4 9 5.684V1Zm-8 9h8-8ZM1 0a1 1 0 0 0-1 1v9a1 1 0 0 0 1 1h8a1 1 0 0 0 1-1V1a1 1 0 0 0-1-1H1Zm2 4a1 1 0 1 0 0-2 1 1 0 0 0 0 2Zm8-1.5h8v2h-8v-2Zm13 3H11v1h13v-1Zm-2 2H11v1h11v-1Zm2 11H11v1h13v-1Zm-13 2h11v1H11v-1Zm8-5h-8v2h8v-2ZM1 14h8v4.684L7.203 17l-2.4 3.485-1.798-1.333L1 21.734V14Zm0 9h8-8Zm-1-9a1 1 0 0 1 1-1h8a1 1 0 0 1 1 1v9a1 1 0 0 1-1 1H1a1 1 0 0 1-1-1v-9Zm4 2a1 1 0 1 1-2 0 1 1 0 0 1 2 0Z"/></g><defs><clipPath id="a"><path fill="#fff" d="M0 0h24v24H0z"/></clipPath></defs></svg>