<svg xmlns="http://www.w3.org/2000/svg" width="24" height="24" fill="none"><path fill="#999" d="M3 6h2v1H3V6Z"/><path fill="#B32056" fill-rule="evenodd" d="M21 3H1v14h12.083c-.055.325-.083.66-.083 1H1a1 1 0 0 1-1-1V3a1 1 0 0 1 1-1h20a1 1 0 0 1 1 1v9.803a5.975 5.975 0 0 0-1-.462V3Zm-2 5H3v1h16V8Zm-7 4H3v1h9v-1Zm-9-2h16v1H3v-1Zm16 12a4 4 0 1 0 0-8 4 4 0 0 0 0 8Zm0 1a5 5 0 1 0 0-10 5 5 0 0 0 0 10Zm.59-5.59L19 15.5l-.59 1.91H16.5l1.545 1.18-.59 1.91L19 19.32l1.545 1.18-.59-1.91 1.545-1.18h-1.91Z" clip-rule="evenodd"/></svg>