<svg xmlns="http://www.w3.org/2000/svg" width="24" height="24" fill="none"><path fill="#B32056" fill-rule="evenodd" d="M18.75 3.232V14.03a1 1 0 0 1-1 1H7.617L4.594 17.5a1 1 0 0 1-1.632-.756L2.93 15.03H1a1 1 0 0 1-1-1V3.232a1 1 0 0 1 1-1h16.75a1 1 0 0 1 1 1ZM7.082 13.53H17.25V3.732H1.5v9.797h2.902l.027 1.472.013.686 2.226-1.82.414-.338Zm13.168-3.051H23c.55 0 1 .45 1 1v7.05c0 .55-.45 1-1 1h-1.93v1.24a.996.996 0 0 1-1.55.83l-3.14-2.07h-5.63c-.55 0-1-.45-1-1v-2h1.5v1.5h5.58l.38.25 2.36 1.56v-1.81h2.93v-6.05h-2.25v-1.5ZM12 6.053H3.75v1.5H12v-1.5Zm-8.25 3H15v1.5H3.75v-1.5Z" clip-rule="evenodd"/></svg>