<svg xmlns="http://www.w3.org/2000/svg" width="24" height="24" fill="none"><path fill="#B32056" fill-rule="evenodd" d="m17.179.302 4.537 4.657a1 1 0 0 1 .284.698V23a1 1 0 0 1-1 1H3a1 1 0 0 1-1-1V1a1 1 0 0 1 1-1h13.463a1 1 0 0 1 .716.302Zm2.727 4.948L16.75 2.01V5.25h3.156ZM3.5 1.5v21h17V6.75h-4.085a1.167 1.167 0 0 1-1.165-1.165V1.5H3.5Zm9.476 14.948v.945h4.76v-1.188h-2.712l1.453-1.367c.294-.276.516-.525.666-.747.156-.223.258-.432.306-.63.054-.204.08-.409.08-.613 0-.384-.098-.714-.296-.99a1.843 1.843 0 0 0-.82-.639c-.347-.155-.755-.233-1.223-.233-.564 0-1.062.104-1.494.314-.432.21-.768.495-1.008.855l1.062.684c.156-.216.345-.375.567-.476.228-.102.474-.153.738-.153.33 0 .579.068.747.206.174.133.26.325.26.576 0 .096-.017.201-.053.315-.03.114-.09.24-.18.378s-.231.294-.423.468l-2.43 2.295Zm-.951-5.354h-1.458v2.484H7.705v-2.484H6.247v6.3h1.458V14.81h2.862v2.582h1.458v-6.3Z" clip-rule="evenodd"/></svg>