<svg xmlns="http://www.w3.org/2000/svg" width="24" height="24" fill="none"><path fill="#B32056" fill-rule="evenodd" d="m14.89 5.302 2.139 2.196a1 1 0 0 1 .284.697V18a1 1 0 0 1-1 1H7.688a1 1 0 0 1-1-1V6a1 1 0 0 1 1-1h6.485a1 1 0 0 1 .716.302ZM13.374 6.5H8.187v11h7.626V8.937h-1.688a.75.75 0 0 1-.75-.75V6.5Zm-8.41 1.97a.75.75 0 0 1 0 1.06L2.494 12l2.47 2.47a.75.75 0 1 1-1.061 1.06l-2.751-2.75a1.102 1.102 0 0 1 0-1.56l2.75-2.75a.75.75 0 0 1 1.061 0Zm14.07 0a.75.75 0 0 0 0 1.06l2.47 2.47-2.47 2.47a.75.75 0 1 0 1.061 1.06l2.751-2.75c.43-.431.43-1.129 0-1.56l-2.75-2.75a.75.75 0 0 0-1.061 0Z" clip-rule="evenodd"/></svg>