<svg xmlns="http://www.w3.org/2000/svg" width="24" height="24" fill="none"><path fill="#B32056" fill-rule="evenodd" d="m17.179.302 4.537 4.657a1 1 0 0 1 .284.698V23a1 1 0 0 1-1 1H3a1 1 0 0 1-1-1V1a1 1 0 0 1 1-1h13.463a1 1 0 0 1 .716.302Zm2.727 4.948L16.75 2.01V5.25h3.156ZM3.5 1.5v21h17V6.75h-4.085a1.167 1.167 0 0 1-1.165-1.165V1.5H3.5Zm12.522 13.336-4.374-4.373H8.35v3.298l4.373 4.373 3.299-3.298ZM13.43 19.55a1 1 0 0 1-1.415 0l-4.873-4.874a1 1 0 0 1-.293-.707V9.963a1 1 0 0 1 1-1h4.005a1 1 0 0 1 .707.293l4.874 4.873a1 1 0 0 1 0 1.415l-4.005 4.005Zm-2.27-7.69a1 1 0 1 1-1.415 1.414 1 1 0 0 1 1.414-1.414Z" clip-rule="evenodd"/></svg>