<svg xmlns="http://www.w3.org/2000/svg" width="24" height="24" fill="none"><path fill="#B32056" fill-rule="evenodd" d="m17.179.302 4.537 4.657a1 1 0 0 1 .284.698V23a1 1 0 0 1-1 1H3a1 1 0 0 1-1-1V1a1 1 0 0 1 1-1h13.463a1 1 0 0 1 .716.302Zm2.727 4.948L16.75 2.01V5.25h3.156ZM3.5 1.5v21h17V6.75h-4.085a1.167 1.167 0 0 1-1.165-1.165V1.5H3.5Zm1.75 12.25h6V10h-6v3.75Zm1.5-2.25h3v.75h-3v-.75Zm6 2.25h6V10h-6v3.75Zm1.5-2.25h3v.75h-3v-.75Zm-3 7.5h-6v-3.75h6V19Zm-1.5-2.25h-3v.75h3v-.75Zm3 2.25h6v-3.75h-6V19Zm1.5-2.25h3v.75h-3v-.75Z" clip-rule="evenodd"/></svg>