<svg xmlns="http://www.w3.org/2000/svg" width="24" height="24" fill="none"><path fill="#B32056" fill-rule="evenodd" d="M14 3a1 1 0 0 0-1 1v4a1 1 0 0 0 1 1h9a1 1 0 0 0 1-1V4a1 1 0 0 0-1-1h-9Zm4 4h-4v1h4V7Zm-8.203 3H0v1h9.797v-1Zm13 0H13v1h9.797v-1ZM13 20h9.797v1H13v-1Zm-3.203 0H0v1h9.797v-1ZM14 13a1 1 0 0 0-1 1v4a1 1 0 0 0 1 1h9a1 1 0 0 0 1-1v-4a1 1 0 0 0-1-1h-9Zm4 4h-4v1h4v-1ZM0 14a1 1 0 0 1 1-1h9a1 1 0 0 1 1 1v4a1 1 0 0 1-1 1H1a1 1 0 0 1-1-1v-4Zm1 3h4v1H1v-1ZM0 4a1 1 0 0 1 1-1h9a1 1 0 0 1 1 1v4a1 1 0 0 1-1 1H1a1 1 0 0 1-1-1V4Zm1 3h4v1H1V7Z" clip-rule="evenodd"/></svg>