<svg xmlns="http://www.w3.org/2000/svg" width="24" height="24" fill="none"><path fill="#B32056" fill-rule="evenodd" d="M19 11H5v12h14V11ZM4 10V1l.001-.051a.994.994 0 0 1 .44-.778A.995.995 0 0 1 5 0h14a1 1 0 0 1 1 1v22a1 1 0 0 1-1 1H5a1 1 0 0 1-1-1V10Zm4 9h8v2H8v-2Zm4.92-15.313c.253.194.432.475.512.784l.014.065a.35.35 0 0 1-.259.432.358.358 0 0 1-.439-.26l-.014-.064a.734.734 0 0 0-.27-.401.14.14 0 0 0-.04-.024.683.683 0 0 0-.388-.115h-.23c-.101 0-.202.036-.288.101l-.014.014a.462.462 0 0 0-.094.547c.05.094.13.166.23.202l.986.395c.252.101.46.288.59.525.136.238.18.518.122.785-.05.266-.194.503-.403.676-.165.137-.367.23-.575.259v.532a.36.36 0 0 1-.36.36.36.36 0 0 1-.36-.36v-.56a1.394 1.394 0 0 1-.56-.267 1.446 1.446 0 0 1-.512-.784l-.014-.065a.351.351 0 0 1 .259-.432.358.358 0 0 1 .439.26l.014.064c.036.151.13.288.252.389.13.1.288.15.446.15h.23c.1 0 .202-.035.288-.1a.455.455 0 0 0 .151-.259.443.443 0 0 0-.273-.504l-.986-.395c-.252-.101-.46-.288-.59-.525a1.107 1.107 0 0 1-.122-.785c.05-.266.194-.503.403-.676.093-.08.194-.137.31-.187.085-.036.172-.058.265-.072V2.86A.36.36 0 0 1 12 2.5a.36.36 0 0 1 .36.36v.56c.086.022.172.051.259.087.108.043.208.108.302.18Z" clip-rule="evenodd"/><path fill="#999" fill-rule="evenodd" d="M16 13H8v1h8v-1Zm0 2H8v1h8v-1Z" clip-rule="evenodd"/></svg>