<svg xmlns="http://www.w3.org/2000/svg" width="24" height="24" fill="none"><path fill="#B32056" fill-rule="evenodd" d="m17.179.302 4.537 4.657a1 1 0 0 1 .284.698V23a1 1 0 0 1-1 1H3a1 1 0 0 1-1-1V1a1 1 0 0 1 1-1h13.463a1 1 0 0 1 .716.302Zm2.727 4.948L16.75 2.01V5.25h3.156ZM3.5 1.5v21h17V6.75h-4.085a1.167 1.167 0 0 1-1.165-1.165V1.5H3.5ZM12 12.62a3 3 0 1 0 0-6 3 3 0 0 0 0 6Zm0-4.48a1.49 1.49 0 1 1 0 2.98 1.49 1.49 0 0 1 0-2.98ZM6.75 18.75v.75h10.5v-.75a5.25 5.25 0 1 0-10.5 0ZM8.32 18a3.76 3.76 0 0 1 7.36 0H8.32Z" clip-rule="evenodd"/></svg>