<svg width="24" height="24" viewBox="0 0 24 24" fill="none" xmlns="http://www.w3.org/2000/svg">
<path fill-rule="evenodd" clip-rule="evenodd" d="M5.25 13.75H11.25V10H5.25V13.75ZM6.75 11.5H9.75V12.25H6.75V11.5Z" fill="url(#paint0_linear_19787_18656)"/>
<path fill-rule="evenodd" clip-rule="evenodd" d="M12.75 13.75H18.75V10H12.75V13.75ZM14.25 11.5H17.25V12.25H14.25V11.5Z" fill="url(#paint1_linear_19787_18656)"/>
<path fill-rule="evenodd" clip-rule="evenodd" d="M11.25 19H5.25V15.25H11.25V19ZM9.75 16.75H6.75V17.5H9.75V16.75Z" fill="url(#paint2_linear_19787_18656)"/>
<path fill-rule="evenodd" clip-rule="evenodd" d="M12.75 19H18.75V15.25H12.75V19ZM14.25 16.75H17.25V17.5H14.25V16.75Z" fill="url(#paint3_linear_19787_18656)"/>
<path fill-rule="evenodd" clip-rule="evenodd" d="M17.179 0.3021L21.7163 4.9587C21.8982 5.1455 22 5.3959 22 5.6566V23C22 23.5523 21.5522 24 21 24H3C2.4478 24 2 23.5523 2 23V1C2 0.4477 2.4478 0 3 0H16.4629C16.7325 0 16.9908 0.1089 17.179 0.3021ZM19.9058 5.2499L16.75 2.0113V5.2499H19.9058ZM3.5 1.5V22.5H20.5V6.75H16.415C15.7725 6.75 15.25 6.2271 15.25 5.5845V1.5H3.5Z" fill="url(#paint4_linear_19787_18656)"/>
<defs>
<linearGradient id="paint0_linear_19787_18656" x1="12" y1="0" x2="12" y2="24" gradientUnits="userSpaceOnUse">
<stop stop-color="#DB320D"/>
<stop offset="1" stop-color="#8B0D9F"/>
</linearGradient>
<linearGradient id="paint1_linear_19787_18656" x1="12" y1="0" x2="12" y2="24" gradientUnits="userSpaceOnUse">
<stop stop-color="#DB320D"/>
<stop offset="1" stop-color="#8B0D9F"/>
</linearGradient>
<linearGradient id="paint2_linear_19787_18656" x1="12" y1="0" x2="12" y2="24" gradientUnits="userSpaceOnUse">
<stop stop-color="#DB320D"/>
<stop offset="1" stop-color="#8B0D9F"/>
</linearGradient>
<linearGradient id="paint3_linear_19787_18656" x1="12" y1="0" x2="12" y2="24" gradientUnits="userSpaceOnUse">
<stop stop-color="#DB320D"/>
<stop offset="1" stop-color="#8B0D9F"/>
</linearGradient>
<linearGradient id="paint4_linear_19787_18656" x1="12" y1="0" x2="12" y2="24" gradientUnits="userSpaceOnUse">
<stop stop-color="#DB320D"/>
<stop offset="1" stop-color="#8B0D9F"/>
</linearGradient>
</defs>
</svg>
