<svg xmlns="http://www.w3.org/2000/svg" width="24" height="24" fill="none"><g clip-path="url(#a)"><path fill="#B32056" fill-rule="evenodd" d="M19.5 7a5.5 5.5 0 1 1-11 0 5.5 5.5 0 0 1 11 0Zm-1.428 5.695a7 7 0 1 1 1.418-1.351l4.601 4.6-1.384 1.386-4.635-4.635ZM14 3.2l.826 2.674H17.5l-2.163 1.652.826 2.674L14 8.548 11.837 10.2l.826-2.674L10.5 5.874h2.674L14 3.2ZM0 1h5v2H0V1Zm5 5H0v2h5V6Zm-5 5h5v2H0v-2Zm17 7v-2H0v2h17Zm0 5v-2H0v2h17Z" clip-rule="evenodd"/></g><defs><clipPath id="a"><path fill="#fff" d="M0 0h24v24H0z"/></clipPath></defs></svg>