<svg xmlns="http://www.w3.org/2000/svg" width="24" height="24" fill="none"><path fill="#999" fill-rule="evenodd" d="M21 9H11v1h10V9Zm0 10H11v1h10v-1Z" clip-rule="evenodd"/><path fill="#B32056" fill-rule="evenodd" d="M2 3a1 1 0 0 0-1 1v6a1 1 0 0 0 1 1h6a1 1 0 0 0 1-1V4a1 1 0 0 0-1-1H2Zm.207 6.793a.68.68 0 0 0 .499.207.68.68 0 0 0 .498-.207.68.68 0 0 0 .208-.499.68.68 0 0 0-.208-.499.68.68 0 0 0-.498-.207.68.68 0 0 0-.499.207.68.68 0 0 0-.207.5c0 .193.07.36.207.498ZM6.553 8.08c.259.597.388 1.237.388 1.919H8a5.84 5.84 0 0 0-.472-2.338 6.065 6.065 0 0 0-1.284-1.906 6.06 6.06 0 0 0-1.906-1.284A5.837 5.837 0 0 0 2 4v1.059c.682 0 1.322.13 1.92.388A5.03 5.03 0 0 1 5.49 6.51c.45.45.804.974 1.063 1.57ZM3.998 8c.55.55.826 1.217.826 1.999h1.058a3.79 3.79 0 0 0-.304-1.518c-.203-.47-.48-.88-.83-1.23s-.76-.627-1.23-.83A3.79 3.79 0 0 0 2 6.118v1.058c.782 0 1.448.276 1.998.826ZM23 4H11v1h12V4Zm0 10H11v1h12v-1ZM11 6h10v1H11V6Zm10 10H11v1h10v-1ZM1 14a1 1 0 0 1 1-1h6a1 1 0 0 1 1 1v6a1 1 0 0 1-1 1H2a1 1 0 0 1-1-1v-6Zm1.706 6a.68.68 0 0 1-.499-.207.68.68 0 0 1-.207-.499c0-.194.07-.36.207-.499a.68.68 0 0 1 .499-.207c.194 0 .36.07.498.207a.68.68 0 0 1 .208.5.68.68 0 0 1-.208.498.68.68 0 0 1-.498.207Zm4.235 0c0-.682-.13-1.322-.388-1.92a5.03 5.03 0 0 0-1.063-1.57 5.029 5.029 0 0 0-1.57-1.063A4.773 4.773 0 0 0 2 15.06V14c.83 0 1.609.157 2.338.472a6.06 6.06 0 0 1 1.906 1.284c.541.541.97 1.176 1.284 1.906A5.84 5.84 0 0 1 8 20H6.941Zm-2.117 0c0-.782-.276-1.448-.826-1.998A2.721 2.721 0 0 0 2 17.177v-1.06a3.79 3.79 0 0 1 1.518.305c.47.203.88.48 1.23.83s.627.76.83 1.23c.203.47.304.977.304 1.518H4.824Z" clip-rule="evenodd"/></svg>