<svg xmlns="http://www.w3.org/2000/svg" width="24" height="24" fill="none"><path fill="#999" d="M2 11h2v1H2v-1Z"/><path fill="#B32056" fill-rule="evenodd" d="M23 5h-9v14h9V5ZM1 5h12v14H1V5Zm0-1a1 1 0 0 0-1 1v14a1 1 0 0 0 1 1h22a1 1 0 0 0 1-1V5a1 1 0 0 0-1-1H1Zm1 12h5v1H2v-1Zm8-2H2v1h8v-1Zm6-8a1 1 0 0 0-1 1v1a1 1 0 0 0 1 1h1a1 1 0 0 0 1-1V7a1 1 0 0 0-1-1h-1Zm3 .5h3V7h-3v-.5ZM21.5 8H19v.5h2.5V8ZM15 11.5a1 1 0 0 1 1-1h1a1 1 0 0 1 1 1v1a1 1 0 0 1-1 1h-1a1 1 0 0 1-1-1v-1Zm7-.5h-3v.5h3V11Zm-3 1.5h2.5v.5H19v-.5ZM16 15a1 1 0 0 0-1 1v1a1 1 0 0 0 1 1h1a1 1 0 0 0 1-1v-1a1 1 0 0 0-1-1h-1Zm3 .5h3v.5h-3v-.5Zm2.5 1.5H19v.5h2.5V17Z" clip-rule="evenodd"/></svg>