<svg xmlns="http://www.w3.org/2000/svg" width="24" height="24" fill="none"><path fill="#999" fill-rule="evenodd" d="M0 4h1v16H0V4Zm23 0h1v16h-1V4ZM5.74 14H3.99v.5h1.75V14Zm4.593 0h1.75v.5h-1.75V14Zm8.084 0h-1.75v.5h1.75V14Z" clip-rule="evenodd"/><path fill="#B32056" fill-rule="evenodd" d="M21 5h-5.333v14H21V5Zm-5.333-1H3a1 1 0 0 0-1 1v14a1 1 0 0 0 1 1h18a1 1 0 0 0 1-1V5a1 1 0 0 0-1-1h-5.333ZM9.333 19h5.334V5H9.333v14Zm-1-14H3v14h5.333V5ZM3.99 15.5h3.34v.5H3.99v-.5Zm2.5 1h-2.5v.5h2.5v-.5Zm3.843-1h3.34v.5h-3.34v-.5Zm2.5 1h-2.5v.5h2.5v-.5Zm3.834-1h3.34v.5h-3.34v-.5Zm2.5 1h-2.5v.5h2.5v-.5Z" clip-rule="evenodd"/></svg>