<svg xmlns="http://www.w3.org/2000/svg" width="24" height="24" fill="none"><path fill="#999" fill-rule="evenodd" d="M4.125 14h1.75v.5h-1.75V14Zm7 0h1.75v.5h-1.75V14Zm8.75 0h-1.75v.5h1.75V14Z" clip-rule="evenodd"/><path fill="#B32056" fill-rule="evenodd" d="M0 5h24v1h-1v12h1v1H0v-1h1V6H0V5Zm2 13h6v-5H2v5Zm7 0h6v-5H9v5Zm7 0h6v-5h-6v5ZM2 12V6h6v3.667L6 8l-4 4Zm7-1.5V6h6v3.667L13 8l-4 4v-1.5Zm7 0V6h6v3.667L20 8l-4 4v-1.5ZM4.5 7.75a.75.75 0 1 1-1.5 0 .75.75 0 0 1 1.5 0Zm6.25.75a.75.75 0 1 0 0-1.5.75.75 0 0 0 0 1.5Zm7.75-.75a.75.75 0 1 1-1.5 0 .75.75 0 0 1 1.5 0ZM3 15.5h4v.5H3v-.5Zm7 0h4v.5h-4v-.5Zm11 0h-4v.5h4v-.5Zm-17.5 1h3v.5h-3v-.5Zm10 0h-3v.5h3v-.5Zm4 0h3v.5h-3v-.5Z" clip-rule="evenodd"/></svg>