<svg xmlns="http://www.w3.org/2000/svg" width="24" height="24" fill="none"><g clip-path="url(#a)"><path fill="#B32056" d="M21.75 4.5A2.252 2.252 0 0 0 24 2.25 2.247 2.247 0 0 0 21.75 0a2.252 2.252 0 0 0-2.25 2.25c0 .413.113.803.315 1.14l-5.063 5.063A4.437 4.437 0 0 0 12 7.5a4.39 4.39 0 0 0-2.34.668L7.8 5.85a2.23 2.23 0 0 0 .45-1.35A2.247 2.247 0 0 0 6 2.25 2.252 2.252 0 0 0 3.75 4.5 2.257 2.257 0 0 0 6 6.75c.33 0 .645-.075.923-.202l1.852 2.317A4.466 4.466 0 0 0 7.5 12c0 .495.082.975.232 1.425l-3.66 1.755A2.252 2.252 0 0 0 0 16.5a2.257 2.257 0 0 0 2.25 2.25A2.252 2.252 0 0 0 4.5 16.5c0-.09-.008-.18-.022-.27l3.742-1.793a4.466 4.466 0 0 0 3.397 2.04l.12 3.12a2.243 2.243 0 0 0-1.612 2.153 2.257 2.257 0 0 0 2.25 2.25 2.252 2.252 0 0 0 2.25-2.25c0-1.08-.758-1.98-1.77-2.198l-.12-3.12a4.482 4.482 0 0 0 3.285-2.414l2.73.967V15A2.257 2.257 0 0 0 21 17.25 2.252 2.252 0 0 0 23.25 15a2.247 2.247 0 0 0-4.207-1.102l-2.648-.938a4.46 4.46 0 0 0-.84-3.713l5.055-5.054c.338.195.72.307 1.14.307Zm-6.787 7.95a2.83 2.83 0 0 1-.375 1.058 2.98 2.98 0 0 1-1.913 1.417 2.856 2.856 0 0 1-1.118.037 2.941 2.941 0 0 1-1.965-1.184 2.76 2.76 0 0 1-.487-1.013A2.897 2.897 0 0 1 9 12a2.988 2.988 0 0 1 1.605-2.655 3 3 0 0 1 3.082.172c.308.21.586.488.796.803.322.48.517 1.057.517 1.68 0 .15-.015.307-.037.45Z"/></g><defs><clipPath id="a"><path fill="#fff" d="M0 0h24v24H0z"/></clipPath></defs></svg>