<svg xmlns="http://www.w3.org/2000/svg" width="24" height="24" fill="none"><path fill="#B32056" d="M16.142 3.858a2.929 2.929 0 0 0-4.142 0A2.93 2.93 0 0 0 7.858 8L12 12.142 16.142 8a2.929 2.929 0 0 0 0-4.142ZM3.623 20.998v-5.12l.56.56h-1.68v-1.04H4.92v5.6H3.623ZM5.764 20.998v-.84l2.16-2.04c.17-.155.296-.294.376-.416.08-.123.134-.235.16-.336a.936.936 0 0 0 .048-.28c0-.224-.077-.395-.232-.512-.15-.123-.37-.184-.664-.184-.234 0-.453.045-.656.136-.197.09-.365.232-.504.424l-.944-.608c.214-.32.512-.574.896-.76.384-.187.827-.28 1.328-.28.416 0 .779.07 1.088.208.315.133.558.322.728.568.176.245.264.538.264.88 0 .181-.024.362-.072.544a1.683 1.683 0 0 1-.272.56c-.133.197-.33.418-.592.664l-1.792 1.688-.248-.472h3.16v1.056H5.764ZM12.85 21.094c-.458 0-.868-.112-1.231-.336a2.34 2.34 0 0 1-.856-.992c-.208-.432-.312-.955-.312-1.568 0-.614.104-1.136.312-1.568.208-.432.493-.76.856-.984.363-.23.773-.344 1.232-.344.464 0 .875.114 1.232.344.363.224.648.552.856.984.208.432.312.954.312 1.568 0 .613-.104 1.136-.312 1.568a2.339 2.339 0 0 1-.856.992 2.27 2.27 0 0 1-1.232.336Zm0-1.096a.907.907 0 0 0 .569-.184c.165-.123.293-.318.384-.584.096-.267.144-.61.144-1.032 0-.422-.048-.766-.144-1.032-.09-.267-.219-.462-.384-.584a.906.906 0 0 0-.568-.184.928.928 0 0 0-.568.184c-.16.122-.288.317-.384.584-.09.266-.136.61-.136 1.032 0 .421.045.765.136 1.032.096.266.224.461.384.584a.929.929 0 0 0 .568.184ZM17.313 19.718l-.072-1.496 2.68-2.824h1.44l-2.416 2.6-.72.768-.912.952Zm-1.16 1.28v-5.6h1.288v5.6h-1.288Zm3.832 0-1.992-2.44.848-.92 2.656 3.36h-1.512Z"/></svg>