<svg xmlns="http://www.w3.org/2000/svg" width="24" height="24" fill="none"><path fill="#B32056" fill-rule="evenodd" d="M7.02 12.75c.133 3.015.952 5.64 2.148 7.267a8.507 8.507 0 0 1-5.635-7.267h3.486Zm1.5 0c.105 2.178.595 4.075 1.283 5.433.82 1.62 1.68 2.07 2.197 2.07.516 0 1.377-.45 2.197-2.07.688-1.358 1.178-3.255 1.282-5.433H8.521Zm6.97-1.5H8.51c.079-2.28.58-4.27 1.293-5.68.82-1.62 1.68-2.07 2.197-2.07.516 0 1.377.45 2.197 2.07.714 1.41 1.214 3.4 1.292 5.68Zm1.49 1.5c-.133 3.015-.952 5.64-2.148 7.267a8.507 8.507 0 0 0 5.635-7.267h-3.486Zm3.487-1.5H16.99c-.092-2.92-.827-5.495-1.928-7.182a8.507 8.507 0 0 1 5.405 7.182Zm-13.457 0H3.533a8.507 8.507 0 0 1 5.405-7.182C7.837 5.755 7.102 8.331 7.01 11.25ZM22 12c0-5.523-4.477-10-10-10S2 6.477 2 12s4.477 10 10 10 10-4.477 10-10Z" clip-rule="evenodd"/></svg>