<svg xmlns="http://www.w3.org/2000/svg" width="24" height="24" fill="none"><g clip-path="url(#a)"><path fill="#B32056" fill-rule="evenodd" d="M14.765 4.665a5.742 5.742 0 0 0 3.356 1.072V3.35a3.32 3.32 0 0 1-1.831-.55A3.34 3.34 0 0 1 14.816.606a3.318 3.318 0 0 1-.05-.606H12.36v9.55a2.039 2.039 0 1 1-1.428-1.946V5.147a4.443 4.443 0 1 0 3.833 4.402V4.665ZM6 18H1v5l3.429-3.625L6 20.987V18Zm-5-1a1 1 0 0 0-1 1v5a1 1 0 0 0 1 1h5a1 1 0 0 0 1-1v-5a1 1 0 0 0-1-1H1Zm17 1h5v2.987l-1.571-1.612L18 23v-5Zm-1 0a1 1 0 0 1 1-1h5a1 1 0 0 1 1 1v5a1 1 0 0 1-1 1h-5a1 1 0 0 1-1-1v-5Zm-2.5 0h-5v5l3.429-3.625 1.571 1.612V18Zm-5-1a1 1 0 0 0-1 1v5a1 1 0 0 0 1 1h5a1 1 0 0 0 1-1v-5a1 1 0 0 0-1-1h-5Z" clip-rule="evenodd"/></g><defs><clipPath id="a"><path fill="#fff" d="M0 0h24v24H0z"/></clipPath></defs></svg>