<svg xmlns="http://www.w3.org/2000/svg" width="24" height="24" fill="none"><path fill="#B32056" d="M21 6.407a7.371 7.371 0 0 1-2.117.594 3.7 3.7 0 0 0 1.618-2.048 7.436 7.436 0 0 1-2.34.904c-.68-.74-1.635-1.17-2.72-1.17-2.021 0-3.673 1.651-3.673 3.69 0 .293.034.577.094.844a10.492 10.492 0 0 1-7.606-3.855 3.652 3.652 0 0 0-.499 1.85c0 1.282.645 2.418 1.644 3.063a3.65 3.65 0 0 1-1.678-.43v.026a3.694 3.694 0 0 0 2.96 3.622 3.631 3.631 0 0 1-1.661.06 3.682 3.682 0 0 0 3.442 2.565 7.332 7.332 0 0 1-4.586 1.583c-.293 0-.585-.018-.878-.052a10.45 10.45 0 0 0 5.662 1.66c6.78 0 10.505-5.626 10.505-10.505 0-.164 0-.318-.008-.482A7.374 7.374 0 0 0 21 6.407Z"/></svg>