<svg xmlns="http://www.w3.org/2000/svg" width="24" height="24" fill="none"><path fill="#B32056" fill-rule="evenodd" d="M5 3.5a1 1 0 1 1-2 0 1 1 0 0 1 2 0Zm1 0a2 2 0 1 1-4 0 2 2 0 0 1 4 0Zm-1 12a1 1 0 1 1-2 0 1 1 0 0 1 2 0Zm1 0a2 2 0 1 1-4 0 2 2 0 0 1 4 0Zm.83-6a3.001 3.001 0 0 0-5.66 0h5.66Zm1.044 0A4.002 4.002 0 0 0 0 10.5h8c0-.345-.044-.68-.126-1ZM4 19.5c1.306 0 2.417.835 2.83 2H1.17a3.001 3.001 0 0 1 2.83-2Zm0-1a4.002 4.002 0 0 1 4 4H0a4.002 4.002 0 0 1 4-4Zm6-11h12v1H10v-1Zm12 12H10v1h12v-1Zm-12-15h14v1H10v-1Zm14 12H10v1h14v-1Z" clip-rule="evenodd"/></svg>