<svg xmlns="http://www.w3.org/2000/svg" width="24" height="24" fill="none"><path fill="#B32056" fill-rule="evenodd" d="M1 3.001a1 1 0 0 0-1 1v2.003a1 1 0 0 0 1 1h3.399a1 1 0 0 0 1-1V4a1 1 0 0 0-1-1H1Zm2.248 2.002L2.15 4.317v1.37l1.097-.684ZM12.395 4a1 1 0 0 1 1-1h3.398a1 1 0 0 1 1 1v2.003a1 1 0 0 1-1 1h-3.398a1 1 0 0 1-1-1V4Zm2.15.316 1.097.686-1.096.685v-1.37Zm-2.15 9.684a1 1 0 0 1 1-1h3.398a1 1 0 0 1 1 1v2.003a1 1 0 0 1-1 1h-3.398a1 1 0 0 1-1-1V14Zm2.15.316 1.097.685-1.096.686v-1.371ZM0 14.001a1 1 0 0 1 1-1h3.399a1 1 0 0 1 1 1v2.003a1 1 0 0 1-1 1H1a1 1 0 0 1-1-1V14Zm2.151.316 1.097.685-1.097.686v-1.371Zm10.244-6.314h5.398v1h-5.398v-1Zm5.398 10h-5.398v1h5.398v-1ZM0 8.003h5.399v1H0v-1Zm5.399 10H0v1h5.399v-1Zm6.996-8.004h3.856v1h-3.856v-1Zm3.856 10h-3.856v1h3.856v-1ZM0 9.999h3.856v1H0v-1Zm3.856 10H0v1h3.856v-1ZM19.592 3a1 1 0 0 0-1 1v2.003a1 1 0 0 0 1 1h3.399a1 1 0 0 0 1-1V4a1 1 0 0 0-1-1h-3.4Zm2.248 2.002-1.097-.686v1.37l1.097-.684ZM18.592 14a1 1 0 0 1 1-1h3.399a1 1 0 0 1 1 1v2.003a1 1 0 0 1-1 1h-3.4a1 1 0 0 1-1-1V14Zm2.151.316 1.097.685-1.097.686v-1.371Zm-2.151-6.314h5.399v1h-5.4v-1Zm5.399 10h-5.4v1h5.4v-1Zm-5.4-8.004h3.857v1h-3.856v-1Zm3.857 10h-3.856v1h3.856v-1ZM7.198 3a1 1 0 0 0-1 1v2.003a1 1 0 0 0 1 1h3.398a1 1 0 0 0 1-1V4a1 1 0 0 0-1-1H7.197Zm2.247 2.002L8.35 4.317v1.37l1.096-.684ZM6.197 14a1 1 0 0 1 1-1h3.4a1 1 0 0 1 1 1v2.003a1 1 0 0 1-1 1h-3.4a1 1 0 0 1-1-1V14Zm2.152.316 1.096.685-1.096.686v-1.371ZM6.197 8.003h5.4v1h-5.4v-1Zm5.4 10h-5.4v1h5.4v-1Zm-5.4-8.004h3.857v1H6.197v-1Zm3.857 10H6.197v1h3.857v-1Z" clip-rule="evenodd"/></svg>