<svg xmlns="http://www.w3.org/2000/svg" width="24" height="24" fill="none"><g fill-rule="evenodd" clip-path="url(#a)" clip-rule="evenodd"><path fill="#B32056" d="M1 0a1 1 0 0 0-1 1v4a1 1 0 0 0 1 1h7a1 1 0 0 0 1-1V1a1 1 0 0 0-1-1H1Zm4.6 3L3.4 1.625v2.75L5.6 3ZM1 9a1 1 0 0 0-1 1v4a1 1 0 0 0 1 1h7a1 1 0 0 0 1-1v-4a1 1 0 0 0-1-1H1Zm4.6 3-2.2-1.375v2.75L5.6 12ZM0 19a1 1 0 0 1 1-1h7a1 1 0 0 1 1 1v4a1 1 0 0 1-1 1H1a1 1 0 0 1-1-1v-4Zm3.4.625L5.6 21l-2.2 1.375v-2.75ZM11 .5h13v1H11v-1Zm11 2H11v1h11v-1Zm-11 7h13v1H11v-1Zm11 2H11v1h11v-1Zm-11 7h13v1H11v-1Zm11 2H11v1h11v-1Z"/><path fill="#999" d="M11 4.5h5v1h-5v-1Zm0 9h5v1h-5v-1Zm5 9h-5v1h5v-1Z"/></g><defs><clipPath id="a"><path fill="#fff" d="M0 0h24v24H0z"/></clipPath></defs></svg>