<svg xmlns="http://www.w3.org/2000/svg" width="24" height="24" fill="none"><path fill="#999" fill-rule="evenodd" d="M2 16h3v1H2v-1Zm8.5 0h3v1h-3v-1ZM22 16h-3v1h3v-1Z" clip-rule="evenodd"/><path fill="#B32056" fill-rule="evenodd" d="M1 8h5v2.528L4.429 9l-2.572 3H1V8Zm6 3.5v.5a1 1 0 0 1-1 1H1a1 1 0 0 1-1-1V8a1 1 0 0 1 1-1h5a1 1 0 0 1 1 1v3.5ZM0 14h7v1H0v-1Zm1 2H0v1h1v-1Zm16 0h1v1h-1v-1Zm-7.5 0h-1v1h1v-1Zm0-8h5v2.528L12.929 9l-2.572 3H9.5V8Zm6 3.5v.5a1 1 0 0 1-1 1h-5a1 1 0 0 1-1-1V8a1 1 0 0 1 1-1h5a1 1 0 0 1 1 1v3.5Zm0 2.5h-7v1h7v-1ZM18 8h5v2.528L21.429 9l-2.572 3H18V8Zm6 3.5v.5a1 1 0 0 1-1 1h-5a1 1 0 0 1-1-1V8a1 1 0 0 1 1-1h5a1 1 0 0 1 1 1v3.5Zm0 2.5h-7v1h7v-1Z" clip-rule="evenodd"/></svg>