<svg xmlns="http://www.w3.org/2000/svg" width="24" height="24" fill="none"><g clip-path="url(#a)"><path fill="#B32056" fill-rule="evenodd" d="M0 3.006a1 1 0 0 1 1-1h5.385a1 1 0 0 1 1 1v2.985a1 1 0 0 1-1 1H1a1 1 0 0 1-1-1V3.006Zm2.942 2.43V3.56l1.5.937-1.5.938ZM0 14.009a1 1 0 0 1 1-1h5.385a1 1 0 0 1 1 1v2.985a1 1 0 0 1-1 1H1a1 1 0 0 1-1-1v-2.985Zm4.442 1.493-1.5.937v-1.875l1.5.938ZM0 18.994h7.385v1H0v-1Zm7.385-10.99H0v1h7.385v-1ZM0 20.994h5.275v1H0v-1Zm5.275-10.99H0v1h5.275v-1Zm4.033-7.998a1 1 0 0 0-1 1v2.985a1 1 0 0 0 1 1h5.384a1 1 0 0 0 1-1V3.006a1 1 0 0 0-1-1H9.308Zm1.942 1.555v1.875l1.5-.938-1.5-.937ZM8.308 14.009a1 1 0 0 1 1-1h5.384a1 1 0 0 1 1 1v2.985a1 1 0 0 1-1 1H9.308a1 1 0 0 1-1-1v-2.985Zm4.442 1.493-1.5.937v-1.875l1.5.938Zm-4.442 3.492h7.384v1H8.308v-1Zm7.384-10.99H8.308v1h7.384v-1Zm-7.384 12.99h5.274v1H8.308v-1Zm5.274-10.99H8.308v1h5.274v-1Zm3.033 8.99H24v1h-7.385v-1ZM24 8.004h-7.385v1H24v-1Zm-7.385 12.99h5.275v1h-5.275v-1Zm5.275-10.99h-5.275v1h5.275v-1Zm-4.275-7.998a1 1 0 0 0-1 1v2.985a1 1 0 0 0 1 1H23a1 1 0 0 0 1-1V3.006a1 1 0 0 0-1-1h-5.385Zm1.943 1.555v1.875l1.5-.938-1.5-.937Zm-2.943 10.448a1 1 0 0 1 1-1H23a1 1 0 0 1 1 1v2.985a1 1 0 0 1-1 1h-5.385a1 1 0 0 1-1-1v-2.985Zm2.943 2.43v-1.875l1.5.938-1.5.937Z" clip-rule="evenodd"/></g><defs><clipPath id="a"><path fill="#fff" d="M0 0h24v24H0z"/></clipPath></defs></svg>