<svg xmlns="http://www.w3.org/2000/svg" width="24" height="24" fill="none"><path fill="#B32056" fill-rule="evenodd" d="M13 7.5H1v9h12v-9Zm-12-1a1 1 0 0 0-1 1v9a1 1 0 0 0 1 1h12a1 1 0 0 0 1-1v-9a1 1 0 0 0-1-1H1Zm8.5 5.598L5 14.696V9.5l4.5 2.598ZM16 6.5a1 1 0 0 0-1 1v1a1 1 0 0 0 1 1h7a1 1 0 0 0 1-1v-1a1 1 0 0 0-1-1h-7Zm7 5h-7v1h7v-1Zm-7-1a1 1 0 0 0-1 1v1a1 1 0 0 0 1 1h7a1 1 0 0 0 1-1v-1a1 1 0 0 0-1-1h-7Zm0 5h7v1h-7v-1Zm-1 0a1 1 0 0 1 1-1h7a1 1 0 0 1 1 1v1a1 1 0 0 1-1 1h-7a1 1 0 0 1-1-1v-1Z" clip-rule="evenodd"/></svg>