<svg xmlns="http://www.w3.org/2000/svg" width="24" height="24" fill="none"><g clip-path="url(#a)"><path fill="#B32056" fill-rule="evenodd" d="M1 0a1 1 0 0 0-1 1v5a1 1 0 0 0 1 1h9a1 1 0 0 0 1-1V1a1 1 0 0 0-1-1H1Zm5.75 3.5-2.5-1.563v3.125L6.75 3.5ZM11 8H0v1h11V8Zm0 13H0v1h11v-1Zm2-13h11v1H13V8Zm11 13H13v1h11v-1ZM0 10h9v1H0v-1Zm9 13H0v1h9v-1Zm4-13h9v1h-9v-1Zm9 13h-9v1h9v-1ZM13 1a1 1 0 0 1 1-1h9a1 1 0 0 1 1 1v5a1 1 0 0 1-1 1h-9a1 1 0 0 1-1-1V1Zm4.25.938 2.5 1.562-2.5 1.563V1.938ZM1 13a1 1 0 0 0-1 1v5a1 1 0 0 0 1 1h9a1 1 0 0 0 1-1v-5a1 1 0 0 0-1-1H1Zm5.75 3.5-2.5-1.563v3.126l2.5-1.563ZM13 14a1 1 0 0 1 1-1h9a1 1 0 0 1 1 1v5a1 1 0 0 1-1 1h-9a1 1 0 0 1-1-1v-5Zm4.25.938 2.5 1.562-2.5 1.563v-3.125Z" clip-rule="evenodd"/></g><defs><clipPath id="a"><path fill="#fff" d="M0 0h24v24H0z"/></clipPath></defs></svg>