<svg xmlns="http://www.w3.org/2000/svg" width="24" height="24" fill="none"><path fill="#B32056" d="M9.5 6.542c1.326 0 2.511.888 2.881 2.16l.315 1.083a.5.5 0 0 0 .677.32l1.038-.444c.186-.079.384-.12.589-.12.7 0 1.301.476 1.46 1.155l.195.832.669.21c1.092.345 1.975 1.244 2.143 2.377a2.91 2.91 0 0 1-2.863 3.343H7.99c-1.478 0-2.882-.885-3.331-2.292a3.317 3.317 0 0 1 1.251-3.732l.757-.532-.135-.915A3.003 3.003 0 0 1 9.5 6.542Zm0-1.5a4.5 4.5 0 0 0-4.451 5.165 4.807 4.807 0 0 0-2.034 4.32c.194 2.538 2.446 4.431 4.992 4.431H16.618c1.746 0 3.392-1.003 4.034-2.627 1.06-2.682-.427-5.251-2.731-5.977a3.001 3.001 0 0 0-4.1-2.072 4.502 4.502 0 0 0-4.32-3.24Z"/></svg>