<svg xmlns="http://www.w3.org/2000/svg" width="24" height="24" fill="none"><path fill="#B32056" fill-rule="evenodd" d="M10.436 2.122A10.07 10.07 0 0 1 12 2c5.334 0 9.692 4.176 9.984 9.437a10.217 10.217 0 0 1 .008.96 10 10 0 0 1-11.556 9.481.5.5 0 0 1 .155-.988 9.07 9.07 0 0 0 1.767.103A9 9 0 1 0 10.591 3.11a.5.5 0 1 1-.155-.988Zm-1.375.827a.5.5 0 0 1-.287.646 8.99 8.99 0 0 0-2.438 1.41.5.5 0 1 1-.63-.777 9.99 9.99 0 0 1 2.71-1.566.5.5 0 0 1 .645.287Zm-4.13 2.684a.5.5 0 0 1 .074.703 8.99 8.99 0 0 0-1.41 2.438.5.5 0 1 1-.933-.359 9.99 9.99 0 0 1 1.566-2.709.5.5 0 0 1 .704-.073Zm-2.238 4.386a.5.5 0 0 1 .417.572 9.07 9.07 0 0 0 0 2.818.5.5 0 1 1-.988.155 10.07 10.07 0 0 1 0-3.128.5.5 0 0 1 .571-.417Zm.256 4.92a.5.5 0 0 1 .646.287 8.99 8.99 0 0 0 1.41 2.438.5.5 0 0 1-.777.63 9.99 9.99 0 0 1-1.566-2.71.5.5 0 0 1 .287-.645Zm2.684 4.13a.5.5 0 0 1 .703-.074 8.99 8.99 0 0 0 2.438 1.41.5.5 0 1 1-.359.933 9.99 9.99 0 0 1-2.709-1.566.5.5 0 0 1-.073-.704ZM15 14l3.773-3.773A7 7 0 1 0 7.05 16.95l5.45-5.45L15 14ZM4 12c0 2.21.895 4.21 2.343 5.657A8 8 0 1 0 4 12Zm5.25-1.5a1.25 1.25 0 1 0 0-2.5 1.25 1.25 0 0 0 0 2.5Z" clip-rule="evenodd"/></svg>