<svg width="24" height="24" viewBox="0 0 24 24" fill="none" xmlns="http://www.w3.org/2000/svg">
<g clip-path="url(#clip0_19787_17986)">
<path d="M3 11H5V12H3V11Z" fill="#999999"/>
<path d="M23 4C23.5523 4 24 4.44772 24 5V16.3301L23 14.5898V5H1V19H11.6699L11.4658 19.3555L11.8359 20H1C0.447716 20 0 19.5523 0 19V5C0 4.44772 0.447715 4 1 4H23Z" fill="url(#paint0_linear_19787_17986)"/>
<path d="M12 17H3V16H12V17Z" fill="url(#paint1_linear_19787_17986)"/>
<path d="M13.9688 15H3V14H14.543L13.9688 15Z" fill="url(#paint2_linear_19787_17986)"/>
<path d="M16.0264 19.2808L17.2987 21.4846H19.8433L18.571 19.2808H16.0264Z" fill="#FB7780"/>
<path d="M15.8636 14.603L13.1494 19.3019L15.8621 24.0015H21.2869L23.9988 19.3019L21.2869 14.603H15.8606H15.8636ZM16.6608 15.9751H20.4799L22.3888 19.2809L21.7515 20.3828L19.8419 17.0771H16.0235L16.6608 15.9751ZM14.7542 19.2816L15.3908 18.179H19.2076L21.1165 21.4847L20.4792 22.5866H16.6623L14.7535 19.2816H14.7542Z" fill="#FB7780"/>
</g>
<defs>
<linearGradient id="paint0_linear_19787_17986" x1="12" y1="4" x2="12" y2="20" gradientUnits="userSpaceOnUse">
<stop stop-color="#DB320D"/>
<stop offset="1" stop-color="#8B0D9F"/>
</linearGradient>
<linearGradient id="paint1_linear_19787_17986" x1="12" y1="4" x2="12" y2="20" gradientUnits="userSpaceOnUse">
<stop stop-color="#DB320D"/>
<stop offset="1" stop-color="#8B0D9F"/>
</linearGradient>
<linearGradient id="paint2_linear_19787_17986" x1="12" y1="4" x2="12" y2="20" gradientUnits="userSpaceOnUse">
<stop stop-color="#DB320D"/>
<stop offset="1" stop-color="#8B0D9F"/>
</linearGradient>
<clipPath id="clip0_19787_17986">
<rect width="24" height="24" fill="white"/>
</clipPath>
</defs>
</svg>
