<svg width="24" height="24" viewBox="0 0 24 24" fill="none" xmlns="http://www.w3.org/2000/svg">
<g clip-path="url(#clip0_19787_18482)">
<path d="M11 23H0V22H11V23Z" fill="url(#paint0_linear_19787_18482)"/>
<path fill-rule="evenodd" clip-rule="evenodd" d="M10 14C10.5523 14 11 14.4477 11 15V20C11 20.5523 10.5523 21 10 21H1C0.447715 21 0 20.5523 0 20V15C0 14.4477 0.447715 14 1 14H10ZM1 20H4V19H2.16406L4.76953 16.7617L6.76953 18.0957L9 16L10 16.667V15H1V20Z" fill="url(#paint1_linear_19787_18482)"/>
<path fill-rule="evenodd" clip-rule="evenodd" d="M23 1C23.5523 1 24 1.44772 24 2V11C24 11.5523 23.5523 12 23 12H1C0.447716 12 0 11.5523 0 11V2C0 1.44772 0.447715 1 1 1H23ZM2 10H16V9H2V10ZM2 8H20V7H2V8ZM2 6H4V5H2V6Z" fill="url(#paint2_linear_19787_18482)"/>
<path d="M16.0264 19.2808L17.2987 21.4846H19.8433L18.571 19.2808H16.0264Z" fill="#FB7780"/>
<path d="M15.8636 14.603L13.1494 19.3019L15.8621 24.0015H21.2869L23.9988 19.3019L21.2869 14.603H15.8606H15.8636ZM16.6608 15.9751H20.4799L22.3888 19.2809L21.7515 20.3828L19.8419 17.0771H16.0235L16.6608 15.9751ZM14.7542 19.2816L15.3908 18.179H19.2076L21.1165 21.4847L20.4792 22.5866H16.6623L14.7535 19.2816H14.7542Z" fill="#FB7780"/>
</g>
<defs>
<linearGradient id="paint0_linear_19787_18482" x1="12" y1="1" x2="12" y2="23" gradientUnits="userSpaceOnUse">
<stop stop-color="#DB320D"/>
<stop offset="1" stop-color="#8B0D9F"/>
</linearGradient>
<linearGradient id="paint1_linear_19787_18482" x1="12" y1="1" x2="12" y2="23" gradientUnits="userSpaceOnUse">
<stop stop-color="#DB320D"/>
<stop offset="1" stop-color="#8B0D9F"/>
</linearGradient>
<linearGradient id="paint2_linear_19787_18482" x1="12" y1="1" x2="12" y2="23" gradientUnits="userSpaceOnUse">
<stop stop-color="#DB320D"/>
<stop offset="1" stop-color="#8B0D9F"/>
</linearGradient>
<clipPath id="clip0_19787_18482">
<rect width="24" height="24" fill="white"/>
</clipPath>
</defs>
</svg>
